<svg width="405" height="249" viewBox="0 0 405 249" fill="none" xmlns="http://www.w3.org/2000/svg">
<path fill-rule="evenodd" clip-rule="evenodd" d="M378.54 236.38H372.29V182.69H377.9L378.62 188.68C382.26 184.69 385.93 182.69 389.62 182.69C399.68 182.69 404.71 189.14 404.71 202.02C404.71 214.96 399.68 221.43 389.62 221.43C385.93 221.43 382.24 219.75 378.55 216.4V236.38H378.54ZM378.54 209.92C382.23 213.62 385.92 215.47 389.61 215.47C395.5 215.47 398.45 210.99 398.45 202.02C398.45 192.59 395.5 187.87 389.61 187.87C385.92 187.87 382.23 190.24 378.54 194.99V209.92ZM359.17 221.43L358.45 215.82C356.05 219.56 352.32 221.43 347.24 221.43C338.38 221.43 333.94 216.03 333.94 205.22V182.69H340.19V205.19C340.19 212.33 342.54 215.9 347.23 215.9C352.31 215.9 356.05 213.25 358.44 207.97V182.69H364.69V221.43H359.17ZM310.11 188.22C303.4 188.22 300.05 192.53 300.05 201.16V203.1C300.05 211.63 303.4 215.89 310.11 215.89H311.55C318.4 215.89 321.83 211.63 321.83 203.1V201.16C321.83 192.53 318.4 188.22 311.55 188.22H310.11ZM328.08 203.1C328.08 215.32 322.57 221.43 311.55 221.43H310.11C299.23 221.43 293.79 215.32 293.79 203.1V201.16C293.79 188.85 299.23 182.69 310.11 182.69H311.55C322.57 182.69 328.08 188.85 328.08 201.16V203.1ZM289.59 188.8C288.15 188.42 286.52 188.22 284.7 188.22C279.76 188.22 276.08 191.31 273.63 197.49V221.28H267.38V182.68H272.91L273.63 189.08C276.07 184.82 279.76 182.68 284.7 182.68C286.52 182.68 288.51 183.2 290.67 184.21L289.59 188.8ZM248.01 213.81C256.2 215.56 260.3 219.27 260.3 224.95V225.94C260.3 232.9 254.79 236.37 243.77 236.37C231.93 236.37 226.02 232.88 226.02 225.92V224.93C226.02 221.61 228.27 218.8 232.78 216.47C230.19 215.4 228.88 213.31 228.83 210.19C228.88 208.19 229.91 206.15 231.92 204.06C229.43 202.47 228.11 199.94 227.97 196.48V194.74C227.97 186.7 232.76 182.68 242.34 182.68H243.92C247.37 182.68 249.57 182.68 250.53 182.68H261.53V187.5H256.21C257.55 189.19 258.27 191.58 258.37 194.66V196.4C258.37 203.5 253.56 207.05 243.92 207.05H242.34C240.38 207.05 238.48 206.8 236.66 206.3C235.37 206.52 234.6 207.49 234.36 209.2C234.5 210.81 235.44 211.8 237.16 212.18L248.01 213.81ZM232.26 225.9C232.26 229.19 236.09 230.85 243.76 230.85C250.61 230.85 254.04 229.2 254.04 225.9V224.91C253.85 221.89 251.4 219.91 246.71 218.97L237.08 217.41C234.11 219.21 232.5 221.7 232.26 224.91V225.9ZM234.21 196.46C234.21 200.31 236.92 202.23 242.33 202.23H243.91C249.37 202.23 252.1 200.3 252.1 196.46V194.72C252.1 189.9 249.37 187.5 243.91 187.5H242.33C236.92 187.5 234.21 189.91 234.21 194.72V196.46Z" fill="white"/>
<path fill-rule="evenodd" clip-rule="evenodd" d="M62.36 220.9C59.63 222.18 56.67 223.19 53.38 223.87C50.12 224.55 46.56 224.9 42.63 224.9C36.7 224.9 31.13 223.78 26.09 221.74C20.85 219.62 16.19 216.5 12.31 212.61C8.41 208.7 5.29 204 3.18 198.75C1.12 193.66 0 188.06 0 182.17V181.95C0 176.02 1.13 170.35 3.23 165.19C5.37 159.93 8.52 155.19 12.51 151.24C16.41 147.37 21.12 144.25 26.46 142.13C31.56 140.11 37.22 138.99 43.3 138.99C47.12 138.99 50.6 139.32 53.78 139.92C56.97 140.53 59.85 141.42 62.49 142.55C65.14 143.68 67.54 145.05 69.75 146.61C71.95 148.16 73.97 149.9 75.88 151.78L76.66 152.55L77.83 153.7L76.76 154.93L76.05 155.75L65.21 168.25L64.43 169.15L63.26 170.5L61.94 169.3L61.06 168.5C59.65 167.22 58.24 166.07 56.85 165.09H56.84C55.45 164.11 54.02 163.27 52.55 162.59C51.11 161.92 49.63 161.4 48.1 161.05C46.57 160.71 44.95 160.52 43.22 160.52C40.47 160.52 37.92 161.06 35.64 162.05V162.06C33.25 163.09 31.13 164.61 29.38 166.5C27.57 168.44 26.13 170.78 25.15 173.39C24.19 175.94 23.67 178.77 23.67 181.74V181.96C23.67 184.97 24.19 187.85 25.15 190.44C26.13 193.07 27.56 195.44 29.38 197.41C31.13 199.3 33.23 200.83 35.62 201.86C37.89 202.84 40.44 203.39 43.21 203.39C45.21 203.39 47 203.19 48.62 202.83C50.25 202.46 51.74 201.92 53.15 201.24C54.58 200.54 55.97 199.66 57.35 198.64C58.74 197.61 60.15 196.41 61.6 195.09H61.61L62.44 194.34L63.68 193.22L64.85 194.4L65.63 195.19L76.47 206.14L77.26 206.93L78.44 208.12L77.29 209.34L76.53 210.16C74.41 212.43 72.24 214.47 69.95 216.25H69.94C67.57 218.05 65.08 219.62 62.36 220.9Z" fill="white"/>
<path fill-rule="evenodd" clip-rule="evenodd" d="M178.24 223.53L161.33 223.56H160.16H158.41V221.82V220.66V143.22V142.05V140.3H160.16H161.33H214.52H215.69H217.44V142.05V143.22V158.38V159.54V161.29H215.69H214.52H181.17V168.57H201.38C201.38 175.61 201.38 182.65 201.38 189.69C194.64 189.69 187.9 189.69 181.15 189.69L181.13 220.64H181.14V221.8V223.54H179.39L178.24 223.53Z" fill="white"/>
<path fill-rule="evenodd" clip-rule="evenodd" d="M141.45 223.58H87.71H86.54H84.79V221.83V220.66V143.22V142.05V140.3H86.54H87.71H140.9H142.07H143.82V142.05V143.22V158.38V159.54V161.29H142.07H140.9H107.55V168.57H127.76C127.76 174.64 127.76 180.71 127.76 186.77V187.94V189.69H126.01H124.85H107.55V202.61H141.45H142.61H144.36V204.36V205.53V220.69V221.86V223.61H142.61H141.45V223.58Z" fill="white"/>
<path d="M146.43 242.08H82.73V248.45H146.43V242.08Z" fill="white"/>
<path fill-rule="evenodd" clip-rule="evenodd" d="M53.6698 34C53.6098 60.1 56.6698 88.93 74.0898 105.61C84.8498 116.36 99.6898 123 116.09 123C132.49 123 147.34 116.35 158.08 105.61C168.83 94.86 175.47 80.01 175.47 63.62C175.47 47.22 168.82 32.37 158.08 21.63C148.73 12.28 136.27 6.03 122.39 4.57C121.68 1.93 119.27 0 116.42 0C112.99 0 110.22 2.78 110.22 6.2C110.22 9.63 113 12.4 116.42 12.4C119.03 12.4 121.26 10.79 122.18 8.5C135.06 9.91 146.62 15.72 155.3 24.41C165.33 34.44 171.54 48.3 171.54 63.61C171.54 78.92 165.33 92.78 155.3 102.81C145.27 112.84 131.41 119.05 116.1 119.05C100.79 119.05 86.9298 112.84 76.8998 102.81C68.4198 94.33 62.6798 83.12 61.0998 70.62C74.2498 109.73 112.84 123.26 136.99 104.84C121.47 114.48 75.6898 108.13 69.0498 69.01C93.8398 112.17 127.08 102.41 144.35 99.82C147.24 32.17 90.3198 59.09 53.6698 34Z" fill="white"/>
<path fill-rule="evenodd" clip-rule="evenodd" d="M159.61 57.6606C155.077 14.8059 96.7261 1.17072 74 39.5505C81.47 41.5505 89.21 42.6005 96.7 43.6105C124.22 47.3205 148.42 50.5905 147.4 94.5905C154.048 87.496 158.492 78.3061 159.61 68.1127V57.6606Z" fill="white"/>
</svg>
