<svg width="254" height="134" viewBox="0 0 254 134" fill="none" xmlns="http://www.w3.org/2000/svg">
<path d="M36.1488 57H40.3488V36.294H40.6008L40.7688 37.596L43.6668 57H45.5988L48.4968 37.596L48.6648 36.294H48.9168V57H53.1168V26.13H47.5728L44.8848 40.242L44.6748 41.88H44.5908L44.3808 40.242L41.6928 26.13H36.1488V57ZM59.3065 57.336C59.9785 57.336 60.6085 57.14 61.1965 56.748C61.7845 56.342 62.2605 55.81 62.6245 55.152H62.9185C62.9185 56.09 63.0445 56.706 63.2965 57H67.4545C67.3425 56.146 67.2655 55.432 67.2235 54.858C67.1815 54.284 67.1605 53.668 67.1605 53.01V38.898C67.1605 37.918 66.9295 37.036 66.4675 36.252C66.0055 35.468 65.3825 34.845 64.5985 34.383C63.8285 33.921 62.9605 33.69 61.9945 33.69C60.9445 33.69 59.9855 33.963 59.1175 34.509C58.2495 35.055 57.5565 35.797 57.0385 36.735C56.5345 37.659 56.2825 38.688 56.2825 39.822V40.788H60.5245C60.5245 39.486 60.6015 38.597 60.7555 38.121C60.9095 37.631 61.2245 37.386 61.7005 37.386C62.3165 37.386 62.6735 37.638 62.7715 38.142C62.8695 38.646 62.9185 39.094 62.9185 39.486V41.502C62.9185 41.782 62.8835 41.999 62.8135 42.153C62.7575 42.293 62.5755 42.454 62.2675 42.636C61.9735 42.818 61.4555 43.105 60.7135 43.497C58.9915 44.393 57.7455 45.506 56.9755 46.836C56.2055 48.152 55.8205 49.727 55.8205 51.561C55.8205 53.269 56.1215 54.662 56.7235 55.74C57.3395 56.804 58.2005 57.336 59.3065 57.336ZM61.1965 53.178C60.3845 53.178 59.9785 52.499 59.9785 51.141C59.9785 49.937 60.2305 48.88 60.7345 47.97C61.2525 47.06 61.9805 46.388 62.9185 45.954V51.792C62.9185 52.142 62.7435 52.464 62.3935 52.758C62.0435 53.038 61.6445 53.178 61.1965 53.178ZM69.9456 57H74.1876V41.04C74.1876 40.34 74.3906 39.752 74.7966 39.276C75.2026 38.786 75.7276 38.457 76.3716 38.289C77.0156 38.107 77.7016 38.142 78.4296 38.394V33.69C77.4076 33.69 76.4696 33.984 75.6156 34.572C74.7756 35.146 74.2996 35.818 74.1876 36.588V34.026H69.9456V57ZM86.3479 57.336C88.2239 57.336 89.6029 56.804 90.4849 55.74C91.3669 54.676 91.8079 53.01 91.8079 50.742V48.516H87.5659V51.708C87.5659 52.394 87.4749 52.877 87.2929 53.157C87.1109 53.423 86.7959 53.556 86.3479 53.556C85.9139 53.556 85.6059 53.423 85.4239 53.157C85.2559 52.877 85.1719 52.394 85.1719 51.708V39.318C85.1719 38.632 85.2559 38.156 85.4239 37.89C85.6059 37.61 85.9139 37.47 86.3479 37.47C86.7959 37.47 87.1109 37.61 87.2929 37.89C87.4749 38.156 87.5659 38.632 87.5659 39.318V42.09H91.8079V40.284C91.8079 38.016 91.3669 36.35 90.4849 35.286C89.6029 34.222 88.2239 33.69 86.3479 33.69C84.4719 33.69 83.0999 34.236 82.2319 35.328C81.3639 36.406 80.9299 38.128 80.9299 40.494V50.532C80.9299 52.898 81.3639 54.627 82.2319 55.719C83.0999 56.797 84.4719 57.336 86.3479 57.336ZM99.638 57.336C101.332 57.336 102.669 56.79 103.649 55.698C104.643 54.592 105.14 53.094 105.14 51.204V48.768H101.192V51.288C101.192 52.002 101.059 52.569 100.793 52.989C100.527 53.395 100.156 53.598 99.68 53.598C99.204 53.598 98.826 53.395 98.546 52.989C98.266 52.569 98.126 52.002 98.126 51.288V46.29H105.14V39.822C105.14 37.946 104.643 36.455 103.649 35.349C102.669 34.243 101.346 33.69 99.68 33.69C97.986 33.69 96.642 34.264 95.648 35.412C94.668 36.546 94.178 38.093 94.178 40.053V50.973C94.178 52.961 94.661 54.522 95.627 55.656C96.607 56.776 97.944 57.336 99.638 57.336ZM98.126 42.972V39.738C98.126 38.17 98.644 37.386 99.68 37.386C100.688 37.386 101.192 38.17 101.192 39.738V42.972H98.126ZM107.967 57H112.209V26.13H107.967V57ZM118.369 57.336C119.041 57.336 119.671 57.14 120.259 56.748C120.847 56.342 121.323 55.81 121.687 55.152H121.981C121.981 56.09 122.107 56.706 122.359 57H126.517C126.405 56.146 126.328 55.432 126.286 54.858C126.244 54.284 126.223 53.668 126.223 53.01V38.898C126.223 37.918 125.992 37.036 125.53 36.252C125.068 35.468 124.445 34.845 123.661 34.383C122.891 33.921 122.023 33.69 121.057 33.69C120.007 33.69 119.048 33.963 118.18 34.509C117.312 35.055 116.619 35.797 116.101 36.735C115.597 37.659 115.345 38.688 115.345 39.822V40.788H119.587C119.587 39.486 119.664 38.597 119.818 38.121C119.972 37.631 120.287 37.386 120.763 37.386C121.379 37.386 121.736 37.638 121.834 38.142C121.932 38.646 121.981 39.094 121.981 39.486V41.502C121.981 41.782 121.946 41.999 121.876 42.153C121.82 42.293 121.638 42.454 121.33 42.636C121.036 42.818 120.518 43.105 119.776 43.497C118.054 44.393 116.808 45.506 116.038 46.836C115.268 48.152 114.883 49.727 114.883 51.561C114.883 53.269 115.184 54.662 115.786 55.74C116.402 56.804 117.263 57.336 118.369 57.336ZM120.259 53.178C119.447 53.178 119.041 52.499 119.041 51.141C119.041 49.937 119.293 48.88 119.797 47.97C120.315 47.06 121.043 46.388 121.981 45.954V51.792C121.981 52.142 121.806 52.464 121.456 52.758C121.106 53.038 120.707 53.178 120.259 53.178ZM135.612 57H141.198C143.424 57 145.146 56.237 146.364 54.711C147.596 53.185 148.212 51.036 148.212 48.264C148.212 46.43 147.932 44.855 147.372 43.539C146.826 42.209 146.049 41.264 145.041 40.704C145.783 40.018 146.357 39.374 146.763 38.772C147.169 38.17 147.456 37.519 147.624 36.819C147.792 36.119 147.876 35.286 147.876 34.32C147.876 31.408 147.225 29.315 145.923 28.041C144.635 26.767 142.528 26.13 139.602 26.13H135.612V57ZM140.148 38.856V30.624C141.338 30.624 142.192 30.946 142.71 31.59C143.242 32.234 143.508 33.284 143.508 34.74C143.508 36.196 143.242 37.246 142.71 37.89C142.192 38.534 141.338 38.856 140.148 38.856ZM140.148 52.506V43.014C141.38 43.014 142.248 43.371 142.752 44.085C143.256 44.799 143.508 46.024 143.508 47.76C143.508 49.496 143.256 50.721 142.752 51.435C142.248 52.149 141.38 52.506 140.148 52.506ZM153.724 57.336C154.396 57.336 155.026 57.14 155.614 56.748C156.202 56.342 156.678 55.81 157.042 55.152H157.336C157.336 56.09 157.462 56.706 157.714 57H161.872C161.76 56.146 161.683 55.432 161.641 54.858C161.599 54.284 161.578 53.668 161.578 53.01V38.898C161.578 37.918 161.347 37.036 160.885 36.252C160.423 35.468 159.8 34.845 159.016 34.383C158.246 33.921 157.378 33.69 156.412 33.69C155.362 33.69 154.403 33.963 153.535 34.509C152.667 35.055 151.974 35.797 151.456 36.735C150.952 37.659 150.7 38.688 150.7 39.822V40.788H154.942C154.942 39.486 155.019 38.597 155.173 38.121C155.327 37.631 155.642 37.386 156.118 37.386C156.734 37.386 157.091 37.638 157.189 38.142C157.287 38.646 157.336 39.094 157.336 39.486V41.502C157.336 41.782 157.301 41.999 157.231 42.153C157.175 42.293 156.993 42.454 156.685 42.636C156.391 42.818 155.873 43.105 155.131 43.497C153.409 44.393 152.163 45.506 151.393 46.836C150.623 48.152 150.238 49.727 150.238 51.561C150.238 53.269 150.539 54.662 151.141 55.74C151.757 56.804 152.618 57.336 153.724 57.336ZM155.614 53.178C154.802 53.178 154.396 52.499 154.396 51.141C154.396 49.937 154.648 48.88 155.152 47.97C155.67 47.06 156.398 46.388 157.336 45.954V51.792C157.336 52.142 157.161 52.464 156.811 52.758C156.461 53.038 156.062 53.178 155.614 53.178ZM164.364 57H168.606V41.04C168.606 40.34 168.809 39.752 169.215 39.276C169.621 38.786 170.146 38.457 170.79 38.289C171.434 38.107 172.12 38.142 172.848 38.394V33.69C171.826 33.69 170.888 33.984 170.034 34.572C169.194 35.146 168.718 35.818 168.606 36.588V34.026H164.364V57ZM175.848 57H180.09V41.04C180.09 40.34 180.293 39.752 180.699 39.276C181.105 38.786 181.63 38.457 182.274 38.289C182.918 38.107 183.604 38.142 184.332 38.394V33.69C183.31 33.69 182.372 33.984 181.518 34.572C180.678 35.146 180.202 35.818 180.09 36.588V34.026H175.848V57ZM192.208 57.336C193.832 57.336 195.148 56.79 196.156 55.698C197.164 54.606 197.668 53.178 197.668 51.414V39.612C197.668 37.862 197.164 36.441 196.156 35.349C195.148 34.243 193.832 33.69 192.208 33.69C190.584 33.69 189.275 34.243 188.281 35.349C187.287 36.455 186.79 37.918 186.79 39.738V51.288C186.79 53.108 187.287 54.571 188.281 55.677C189.275 56.783 190.584 57.336 192.208 57.336ZM192.208 53.598C191.256 53.598 190.78 52.828 190.78 51.288V39.738C190.78 38.17 191.256 37.386 192.208 37.386C193.188 37.386 193.678 38.17 193.678 39.738V51.288C193.678 52.828 193.188 53.598 192.208 53.598ZM206.042 57.336C207.694 57.336 209.01 56.762 209.99 55.614C210.97 54.466 211.46 52.94 211.46 51.036C211.46 49.874 211.173 48.782 210.599 47.76C210.025 46.724 209.01 45.478 207.554 44.022C206.532 43.07 205.811 42.272 205.391 41.628C204.985 40.97 204.782 40.319 204.782 39.675C204.782 38.037 205.216 37.218 206.084 37.218C206.574 37.218 206.924 37.428 207.134 37.848C207.358 38.254 207.47 38.94 207.47 39.906H211.418C211.418 37.736 210.984 36.154 210.116 35.16C209.248 34.152 207.876 33.662 206 33.69C204.376 33.718 203.109 34.278 202.199 35.37C201.289 36.462 200.834 37.974 200.834 39.906C200.834 40.732 200.953 41.495 201.191 42.195C201.429 42.881 201.842 43.595 202.43 44.337C203.018 45.079 203.83 45.954 204.866 46.962C205.902 47.998 206.602 48.817 206.966 49.419C207.33 50.021 207.512 50.658 207.512 51.33C207.512 52.982 207.022 53.808 206.042 53.808C205.426 53.808 204.943 53.507 204.593 52.905C204.243 52.289 204.068 51.428 204.068 50.322H200.12C200.12 52.548 200.638 54.277 201.674 55.509C202.71 56.727 204.166 57.336 206.042 57.336ZM77.472 106H82.008V75.13H77.472V106ZM85.388 106H89.924V92.56H94.124V87.898H89.924V79.792H96.182V75.13H85.388V106ZM98.0208 106H103.607C105.833 106 107.555 105.237 108.773 103.711C110.005 102.185 110.621 100.036 110.621 97.264C110.621 95.43 110.341 93.855 109.781 92.539C109.235 91.209 108.458 90.264 107.45 89.704C108.192 89.018 108.766 88.374 109.172 87.772C109.578 87.17 109.865 86.519 110.033 85.819C110.201 85.119 110.285 84.286 110.285 83.32C110.285 80.408 109.634 78.315 108.332 77.041C107.044 75.767 104.937 75.13 102.011 75.13H98.0208V106ZM102.557 87.856V79.624C103.747 79.624 104.601 79.946 105.119 80.59C105.651 81.234 105.917 82.284 105.917 83.74C105.917 85.196 105.651 86.246 105.119 86.89C104.601 87.534 103.747 87.856 102.557 87.856ZM102.557 101.506V92.014C103.789 92.014 104.657 92.371 105.161 93.085C105.665 93.799 105.917 95.024 105.917 96.76C105.917 98.496 105.665 99.721 105.161 100.435C104.657 101.149 103.789 101.506 102.557 101.506ZM113.32 106H118.906C121.132 106 122.854 105.237 124.072 103.711C125.304 102.185 125.92 100.036 125.92 97.264C125.92 95.43 125.64 93.855 125.08 92.539C124.534 91.209 123.757 90.264 122.749 89.704C123.491 89.018 124.065 88.374 124.471 87.772C124.877 87.17 125.164 86.519 125.332 85.819C125.5 85.119 125.584 84.286 125.584 83.32C125.584 80.408 124.933 78.315 123.631 77.041C122.343 75.767 120.236 75.13 117.31 75.13H113.32V106ZM117.856 87.856V79.624C119.046 79.624 119.9 79.946 120.418 80.59C120.95 81.234 121.216 82.284 121.216 83.74C121.216 85.196 120.95 86.246 120.418 86.89C119.9 87.534 119.046 87.856 117.856 87.856ZM117.856 101.506V92.014C119.088 92.014 119.956 92.371 120.46 93.085C120.964 93.799 121.216 95.024 121.216 96.76C121.216 98.496 120.964 99.721 120.46 100.435C119.956 101.149 119.088 101.506 117.856 101.506ZM135.099 106H139.635V93.652C142.239 93.652 144.22 92.812 145.578 91.132C146.936 89.438 147.615 87.184 147.615 84.37C147.615 81.402 146.922 79.12 145.536 77.524C144.164 75.928 142.197 75.13 139.635 75.13H135.099V106ZM139.635 89.032V79.75C141.133 79.75 142.071 80.142 142.449 80.926C142.841 81.71 143.037 82.914 143.037 84.538C143.037 86.162 142.841 87.317 142.449 88.003C142.057 88.689 141.119 89.032 139.635 89.032ZM149.865 106H154.401V92.98H155.619L157.971 106H162.507L159.609 91.048C161.289 89.886 162.129 87.548 162.129 84.034C162.129 78.098 159.553 75.13 154.401 75.13H149.865V106ZM154.401 88.78V79.624C155.563 79.624 156.41 79.995 156.942 80.737C157.488 81.465 157.761 82.62 157.761 84.202C157.761 85.784 157.488 86.946 156.942 87.688C156.41 88.416 155.563 88.78 154.401 88.78ZM170.794 106.336C172.586 106.336 174.028 105.741 175.12 104.551C176.212 103.347 176.786 101.716 176.842 99.658V81.472C176.786 79.428 176.212 77.804 175.12 76.6C174.028 75.396 172.586 74.794 170.794 74.794C169.016 74.794 167.581 75.396 166.489 76.6C165.397 77.79 164.816 79.414 164.746 81.472V99.658C164.83 101.73 165.411 103.361 166.489 104.551C167.567 105.741 169.002 106.336 170.794 106.336ZM170.794 101.926C170.318 101.926 169.947 101.723 169.681 101.317C169.415 100.911 169.282 100.358 169.282 99.658V81.472C169.282 79.96 169.786 79.204 170.794 79.204C171.802 79.204 172.306 79.96 172.306 81.472V99.658C172.306 100.358 172.173 100.911 171.907 101.317C171.641 101.723 171.27 101.926 170.794 101.926Z" fill="white"/>
</svg>
