<svg width="159" height="428" viewBox="0 0 159 428" fill="none" xmlns="http://www.w3.org/2000/svg">
<g clip-path="url(#clip0)">
<path d="M78.14 427.52C73.9 427.17 69.63 427.01 65.43 426.42C50.43 424.29 36.8 419.13 25.5 408.7C11.5 395.7 4.83003 379.3 3.50003 360.53C3.02003 353.79 2.94002 347 2.93002 340.24C2.88335 302.667 2.88335 265.103 2.93002 227.55C2.93002 223.09 3.03002 222.98 7.37002 222.97C12.84 222.97 18.3 222.97 23.77 222.97C28.6 222.97 28.65 223.02 28.65 227.75C28.65 267.5 28.59 307.25 28.71 347.01C28.5896 353.365 29.0213 359.719 30 366C32.42 379.56 38.66 391.07 50.85 398.28C57.0295 401.938 63.9621 404.137 71.12 404.71C79.51 405.42 87.84 405.45 95.98 403.39C112.44 399.22 123.98 389.34 129.54 372.99C132.245 364.953 133.58 356.519 133.49 348.04C133.43 308.087 133.43 268.133 133.49 228.18C133.346 227.182 133.38 226.166 133.59 225.18C133.91 224.33 134.83 223.09 135.49 223.08C142.94 222.99 150.38 223.08 157.82 223.18C158.112 223.247 158.389 223.366 158.64 223.53V359.94C158.444 360.502 158.287 361.076 158.17 361.66C157.015 371.453 154.141 380.966 149.68 389.76C144.257 400.59 135.868 409.656 125.49 415.9C113.74 422.911 100.379 426.769 86.7 427.1C84.83 427.16 82.96 427.38 81.09 427.52H78.14Z" fill="white"/>
<path d="M72.7501 189C73.4835 189.136 74.2251 189.223 74.9701 189.26C86.4901 189.18 97.9701 189.11 109.53 188.94C111.85 188.94 112.71 189.82 112.71 192.11C112.71 200.91 112.89 199.23 105.8 199.25C85.44 199.32 65.0701 199.25 44.7101 199.25C40.6401 199.25 40.4401 199.1 40.5001 195.08C40.5901 189.28 39.21 189.56 46.01 187.58C56.67 184.46 67.3601 181.42 78.0101 178.33C78.8701 178.08 79.7001 177.69 80.5401 177.33L80.3801 176.42H77.3001C66.3801 176.42 55.4534 176.42 44.5201 176.42C40.6801 176.42 40.4601 176.19 40.5201 172.36C40.5201 166.18 39.6801 166.11 46.5901 166.12C67.1501 166.12 87.7134 166.12 108.28 166.12C112.42 166.12 112.67 166.38 112.72 170.48C112.8 176.39 112.78 176.32 107.11 177.95C96.11 181.1 85.2001 184.33 74.2501 187.54C73.7211 187.722 73.2035 187.936 72.7001 188.18L72.7501 189Z" fill="white"/>
<path d="M40.44 132.79V131C40.44 125.94 40.44 125.86 45.28 125.1C65.18 121.94 85.0833 118.803 104.99 115.69C106.65 115.397 108.292 115.013 109.91 114.54C111.91 113.99 112.7 114.88 112.7 116.79C112.7 117.88 112.7 118.98 112.7 120.08C112.7 125.56 112.7 125.54 107.12 126.18C104.86 126.43 102.61 126.81 100.35 127.13C99.9997 127.131 99.6537 127.207 99.3351 127.353C99.0166 127.498 98.7328 127.71 98.5027 127.974C98.2727 128.238 98.1017 128.549 98.0012 128.884C97.9007 129.22 97.873 129.573 97.92 129.92C97.98 131.81 97.92 133.71 97.92 135.6C97.92 137.49 98.84 138.42 100.77 138.67C103.92 139.06 107.03 139.75 110.18 140.17C110.529 140.162 110.875 140.229 111.196 140.366C111.517 140.503 111.804 140.708 112.039 140.965C112.274 141.223 112.451 141.528 112.558 141.86C112.665 142.192 112.7 142.543 112.66 142.89C112.66 144.78 112.66 146.68 112.66 148.57C112.66 150.65 111.78 151.36 109.66 151C103.49 149.95 97.3 149.06 91.12 148.08C78.8667 146.127 66.6167 144.167 54.37 142.2C50.45 141.57 46.57 140.73 42.64 140.12C42.3178 140.123 41.9988 140.057 41.7046 139.925C41.4105 139.794 41.1482 139.6 40.9355 139.358C40.7229 139.116 40.565 138.831 40.4726 138.523C40.3801 138.214 40.3554 137.889 40.4 137.57C40.4 135.98 40.4 134.38 40.4 132.79H40.44ZM63.5 132.27L63.41 133.27L86.41 136.71C86.4995 134.73 86.4694 132.746 86.32 130.77C86.173 130.414 85.9366 130.101 85.6335 129.863C85.3304 129.625 84.971 129.469 84.59 129.41C77.57 130.3 70.54 131.3 63.5 132.27V132.27Z" fill="white"/>
<path d="M53.53 0.31005C59.19 0.31005 59.19 0.310048 59.63 5.98005C59.95 10.03 59.68 10.3 55.63 10.72C54.4394 10.7227 53.2692 11.0291 52.23 11.61C51.16 12.42 49.72 13.93 49.89 14.89C50.1 16.13 51.63 17.89 52.78 18.07C55.24 18.39 58.21 18.55 60.28 17.46C65.35 14.8 70.04 11.41 74.86 8.28005C76.0423 7.54775 77.1687 6.72884 78.23 5.83005C85.82 -0.83995 94.96 -0.0899529 103.99 0.510047C108.11 0.780047 112.07 5.29005 113.08 10.51C113.887 14.3378 113.62 18.3141 112.31 22C110.56 26.79 107.01 29.3201 102.31 30.4401C100.09 30.9601 97.8 31.1701 95.54 31.5101C93.46 31.8301 92.3 30.89 92.09 28.82C91.88 26.75 91.7 24.46 91.52 22.27C91.4 20.88 92.18 20.2701 93.45 20.1501C95.03 19.9601 96.62 19.8201 98.18 19.5201C99.24 19.3201 100.57 19.1901 101.18 18.5201C102.255 17.4409 102.992 16.0716 103.3 14.5801C103.51 12.8801 102.2 11.58 100.49 11.18C97.25 10.39 93.9 10.0701 90.92 11.8301C86.7046 14.2599 82.6159 16.9034 78.67 19.75C73.1 23.84 67.38 27.4501 60.67 29.4001C54.88 31.0801 46.4 28.66 42.52 23.84C39.2 19.72 38.74 11.25 41.57 6.20005C43.74 2.35005 47.81 0.35005 53.53 0.31005Z" fill="white"/>
<path d="M76.55 70H44.67C40.88 70 40.55 69.69 40.55 66C40.55 57.35 39.83 58.54 48.02 58.52C65.02 58.52 82.02 58.52 98.96 58.52C103.07 58.52 103.08 58.52 103.09 54.33C103.09 51.54 103.09 48.75 103.09 45.97C103.09 44.41 103.73 43.51 105.39 43.54C105.587 43.5499 105.783 43.5499 105.98 43.54C112.68 43.25 112.69 43.25 112.68 50.01C112.68 55.49 112.68 61.01 112.68 66.44C112.68 69.66 112.2 70.07 109.03 70.07C98.2034 70.0233 87.3767 70 76.55 70Z" fill="white"/>
<path d="M77 87.72H108.87C112.23 87.72 112.62 88.12 112.71 91.47C112.71 93.16 112.71 94.86 112.66 96.55C112.688 96.9012 112.639 97.2543 112.515 97.5843C112.392 97.9142 112.197 98.213 111.945 98.4592C111.693 98.7055 111.39 98.8932 111.057 99.0092C110.725 99.1251 110.37 99.1663 110.02 99.13C109.33 99.13 108.64 99.13 107.94 99.13C86.9867 99.13 66.0367 99.13 45.09 99.13C40.92 99.13 40.63 98.87 40.64 94.8C40.64 86.56 39.83 87.74 47.81 87.69C57.51 87.68 67.24 87.72 77 87.72Z" fill="white"/>
</g>
<defs>
<clipPath id="clip0">
<rect width="158.67" height="427.52" fill="white"/>
</clipPath>
</defs>
</svg>
