<svg width="997" height="218" viewBox="0 0 997 218" fill="none" xmlns="http://www.w3.org/2000/svg">
<path d="M799.294 166.56C790.069 166.56 780.802 167.1 771.627 166.418C761.428 165.657 757.544 161.716 754.963 151.923C749.458 131.033 749.465 109.775 750.425 88.4161C750.766 80.8201 752.438 73.6579 755.916 66.9723C758.22 62.5413 761.776 60.1586 767.103 59.4474C787.416 56.7447 807.793 57.6764 828.163 57.5768C836.705 57.5342 842.182 62.3706 846.15 69.419C849.692 75.7063 850.304 82.7333 850.901 89.6537C851.918 101.56 852.957 113.509 853 125.443C853.028 134.149 851.819 142.918 850.496 151.56C849.301 159.341 843.377 164.575 834.742 165.649C827.843 166.51 820.837 166.581 813.874 166.823C809.024 166.994 804.166 166.859 799.308 166.859C799.294 166.752 799.294 166.652 799.294 166.56ZM794.052 110.721C794.607 123.338 795.076 135.244 795.695 147.143C795.859 150.272 798.476 152.321 801.776 152.221C806.143 152.086 810.503 151.766 814.863 151.666C819.358 151.56 823.86 151.759 828.348 151.581C833.348 151.382 835.524 148.864 835.368 143.871C835.176 137.847 834.906 131.83 834.792 125.806C834.692 120.671 834.771 115.529 834.771 110.721C820.709 110.721 807.623 110.721 794.052 110.721Z" fill="white"/>
<path d="M220.169 164.469C220.169 167.321 220.169 169.789 220.169 172.612C222.402 172.612 224.6 172.612 227.381 172.612C227.793 176.474 228.334 180.052 228.447 183.644C228.469 184.405 226.947 185.877 226.122 185.884C219.977 185.934 213.824 185.72 207.672 185.528C205.432 185.457 203.149 184.867 200.972 185.166C197.423 185.649 196.648 184.127 196.748 180.991C196.911 176.04 196.79 171.083 196.79 165.336C187.95 165.799 179.372 166.311 170.787 166.673C166.776 166.844 162.708 167.164 158.753 166.688C150.574 165.692 146.676 161.275 146.243 153.003C145.446 137.875 144.543 122.755 144.116 107.612C143.874 98.8996 143.668 90.0518 144.884 81.4672C146.833 67.726 155.901 59.3334 169.813 58.5297C185.759 57.6051 201.769 57.7616 217.758 57.5767C221.819 57.5269 224.891 59.9878 226.591 63.3092C228.661 67.3562 230.645 71.7161 231.342 76.1471C234.792 98.0603 236.029 120.151 235.652 142.335C235.61 144.931 235.24 147.527 234.905 150.109C233.824 158.629 228.419 162.868 220.169 164.469ZM186.584 105.756C187.487 118.238 188.327 130.251 189.301 142.242C189.358 142.975 190.538 144.227 191.171 144.213C198.49 144.056 205.802 143.772 213.113 143.366C215.467 143.238 216.079 141.652 215.908 139.383C215.503 134.07 215.332 128.743 215.012 123.43C214.649 117.449 214.23 111.474 213.86 105.756C204.628 105.756 195.795 105.756 186.584 105.756Z" fill="white"/>
<path d="M724.543 134.618C724.543 137.833 724.543 140.848 724.543 143.701C729.728 143.701 734.685 143.786 739.628 143.665C742.487 143.594 744.187 144.654 744.45 147.584C744.856 152.058 745.382 156.524 745.567 161.005C745.688 163.893 743.81 165.628 741.079 166.133C738.768 166.56 736.385 166.78 734.031 166.809C720.297 166.979 706.563 167.079 692.822 167.164C686.712 167.2 682.9 163.437 682.8 157.285C682.623 146.396 682.502 135.507 682.345 124.611C682.153 111.83 681.861 99.049 681.769 86.261C681.684 74.7176 684.059 72.1785 695.524 71.894C709.963 71.5383 724.408 71.5028 738.846 71.2254C742.416 71.1543 744.813 72.7688 745.105 76.1187C745.61 81.8442 745.752 87.6408 745.475 93.3805C745.411 94.7531 743.305 96.6806 741.755 97.1856C738.206 98.3378 734.436 98.8641 730.724 99.4331C729.017 99.6962 727.231 99.4758 725.354 99.4758C725.581 102.406 725.788 104.967 726.051 108.352C729.465 108.352 732.964 108.224 736.449 108.43C737.53 108.494 739.265 109.234 739.507 110.023C741.826 117.698 741.997 125.55 741.228 133.58C735.403 133.949 730.012 134.284 724.543 134.618Z" fill="white"/>
<path d="M268.412 134.383C274.429 133.537 279.792 132.783 285.887 131.93C285.162 111.951 284.443 92.0504 283.718 71.958C290.169 71.958 296.186 71.9295 302.196 71.9722C304.82 71.9935 306.008 73.48 306.015 76.0547C306.072 97.4701 306.186 118.885 306.179 140.308C306.179 143.608 305.844 146.937 305.375 150.208C304.08 159.319 299.735 164.739 290.453 165.671C279.223 166.794 267.822 166.702 256.513 166.396C250.282 166.225 245.425 162.399 243.618 156.311C241.79 150.137 239.998 143.701 239.856 137.335C239.386 116.624 239.713 95.8982 239.642 75.1728C239.635 72.5625 240.418 71.6664 243.142 71.7659C249.258 71.9935 255.396 71.8228 261.52 71.8797C266.911 71.9295 267.445 72.5056 267.466 77.7403C267.53 94.305 267.587 110.877 267.715 127.442C267.743 129.646 268.156 131.851 268.412 134.383Z" fill="white"/>
<path d="M347.103 109.39C347.274 111.766 347.438 113.978 347.644 116.752C350.667 116.752 353.59 116.851 356.506 116.716C358.462 116.624 359.422 117.498 359.578 119.284C360.069 124.924 360.588 130.564 360.802 136.218C360.83 136.986 359.208 138.402 358.234 138.515C354.379 138.964 350.474 139.013 346.328 139.22C346.328 142.008 346.328 144.525 346.328 147.143C350.702 147.143 354.834 147.328 358.938 147.079C362.032 146.894 363.327 148.345 363.597 151.069C363.952 154.597 364.287 158.139 364.372 161.681C364.45 164.952 362.224 166.304 359.329 166.467C354.016 166.773 348.696 166.965 343.383 167.043C335.211 167.164 327.039 167.171 318.867 167.171C314.13 167.171 310.595 164.042 310.524 159.362C310.197 137.939 309.934 116.517 309.813 95.0873C309.777 88.5581 311.52 86.716 318.014 85.8626C322.11 85.3291 326.264 85.0944 330.396 85.0375C339.756 84.9237 349.116 85.0731 358.469 84.9593C361.605 84.9166 363.746 86.1968 363.995 89.1912C364.401 94.0987 364.713 99.0987 364.116 103.942C363.924 105.528 360.951 107.456 358.931 107.975C355.204 108.928 351.25 108.949 347.103 109.39Z" fill="white"/>
<path d="M496.143 132.328C495.88 139.888 495.78 147.463 495.311 155.009C494.841 162.648 491.662 166.19 484.066 166.467C472.494 166.88 460.901 166.759 449.315 166.524C444.763 166.432 442.253 163.423 441.122 158.985C437.615 145.251 438.775 119.654 439.031 117.399C439.294 115.144 441.079 110.671 442.053 109.419C443.028 108.167 443.455 107.427 444.905 106.681C446.356 105.927 450.588 106.154 453.433 105.891C457.231 105.692 461.022 105.493 464.82 105.294C467.43 105.294 470.034 105.301 472.644 105.301C475.489 105.301 478.334 105.301 481.179 105.301C483.76 106.069 486.335 106.83 488.917 107.598C489.6 108.274 490.29 108.942 490.972 109.618C491.705 110.841 492.438 112.065 493.17 113.288C493.575 114.682 493.988 116.083 494.393 117.477C494.685 119.341 494.977 121.211 495.268 123.075C495.56 126.154 495.851 129.241 496.143 132.328ZM463.149 135.429C463.462 142.548 463.647 149.142 464.166 155.713C464.244 156.73 465.83 158.423 466.748 158.444C472.16 158.573 477.601 158.459 482.999 158.046C484.13 157.961 486.043 156.282 486.051 155.315C486.143 148.644 485.837 141.972 485.659 135.436C477.964 135.429 470.88 135.429 463.149 135.429Z" fill="white"/>
<path d="M586.449 98.7859C587.772 98.1671 610.069 99.0988 621.613 99.2269C626.506 99.2838 627.409 100.045 627.679 105.301C628.256 116.403 628.789 127.513 629.216 138.622C629.5 145.955 629.593 153.295 629.692 160.635C629.721 162.555 630.254 164.803 627.174 165.194C621.826 165.877 621.307 165.692 620.204 161.794C620.076 161.339 619.948 160.884 619.763 160.223C611.442 160.223 603.085 160.223 594.685 160.223C592.864 166.339 589.486 168.11 582.928 166.275C580.389 165.564 579.287 163.864 579.436 161.247C580.027 150.735 580.631 140.223 581.157 129.711C581.534 122.157 581.755 114.59 582.146 107.036C582.238 105.279 582.594 102.598 583.049 101.802C583.504 100.991 585.119 99.4047 586.449 98.7859ZM603.469 130.265C603.469 136.61 603.469 142.534 603.469 148.409C607.644 148.693 611.485 148.949 615.467 149.22C615.78 142.989 616.072 137.029 616.378 130.898C611.99 130.685 608.007 130.486 603.469 130.265Z" fill="white"/>
<path d="M677.658 150.102C677.978 154.675 678.448 158.786 678.497 162.904C678.533 165.728 677.068 167.577 673.889 167.541C662.046 167.399 650.211 167.285 638.369 167.178C632.8 167.129 632.679 167.015 632.665 161.375C632.63 140.656 632.594 119.938 632.537 99.2197C632.53 96.0262 632.189 92.8185 632.416 89.6464C632.487 88.6862 633.896 87.1002 634.778 87.0362C642.21 86.517 649.657 86.2822 657.103 85.9835C659.977 85.8697 661.477 86.4885 661.357 90.1585C660.852 105.77 660.738 121.403 660.56 137.022C660.531 139.853 660.859 142.691 661.1 145.514C661.364 148.58 662.914 150.215 666.179 150.123C669.842 150.023 673.512 150.102 677.658 150.102Z" fill="white"/>
<path d="M571.456 110.407C574.486 113.331 577.729 125.841 577.089 134.376C576.349 144.355 567.722 152.207 557.779 152.242C554.13 152.257 550.482 152.242 546.527 152.242C546.527 157.1 546.527 162.114 546.527 167.299C540.503 167.299 534.77 167.299 528.078 167.299C528.078 154.056 528.078 141.055 528.078 128.053C528.078 124.732 528.078 121.417 528.085 118.096C528.27 116.005 528.455 113.914 528.632 111.823C529.337 107.819 532.053 106.311 535.773 105.969C538.206 105.749 540.631 105.443 543.063 105.173C546.62 105.173 550.176 105.173 553.732 105.173C556.812 105.23 561.52 105.023 562.971 105.343C564.422 105.663 565.581 106.19 566.534 106.645C567.48 107.114 568.426 107.484 571.456 110.407ZM563.576 126.588C558.49 126.339 554.408 126.133 550.048 125.92C550.048 132.114 550.048 137.947 550.048 144.412C553.888 143.935 557.516 143.693 561.022 142.918C562.046 142.69 563.391 140.991 563.462 139.895C563.739 135.571 563.576 131.211 563.576 126.588Z" fill="white"/>
<path d="M421.548 108.146C421.413 121.268 421.114 134.397 421.214 147.52C421.25 152.399 422.267 152.932 427.06 152.947C428.839 152.954 430.617 152.975 432.388 153.011C433.092 153.025 433.796 153.096 435.076 153.181C435.297 156.759 435.674 160.351 435.688 163.942C435.695 166.119 434.351 167.328 431.989 167.314C421.683 167.235 411.385 167.207 401.079 167.186C398.646 167.178 397.523 166.289 397.523 163.587C397.544 143.572 397.459 123.565 397.309 103.551C397.288 101.126 397.957 100.215 400.517 100.237C403.454 100.265 406.392 99.7318 409.329 99.4401C411.698 99.4046 414.073 99.369 416.442 99.3406C421.42 99.7815 421.413 99.7815 421.435 104.974C421.442 106.026 421.513 107.086 421.548 108.146Z" fill="white"/>
<path d="M785.432 54.8028C781.164 44.9522 781.164 44.9593 790.517 41.0048C797.665 37.9821 804.842 35.002 811.94 31.8512C814.472 30.7274 815.659 31.6023 816.477 33.9138C817.765 37.5696 819.166 41.1898 820.432 44.8597C821.036 46.6165 820.937 48.0247 818.554 48.4657C807.551 50.5141 796.584 52.662 785.432 54.8028Z" fill="white"/>
</svg>
