<svg width="861" height="347" viewBox="0 0 861 347" fill="none" xmlns="http://www.w3.org/2000/svg">
<path d="M59.85 193.52C50.2233 193.52 41.04 192.19 32.3 189.53C23.6867 186.87 16.7833 183.197 11.59 178.51C9.18333 176.483 7.98 173.887 7.98 170.72C7.98 168.44 8.61333 166.54 9.88 165.02C11.1467 163.373 12.6667 162.55 14.44 162.55C16.2133 162.55 18.3667 163.373 20.9 165.02C32.1733 173.38 45.03 177.56 59.47 177.56C69.6033 177.56 77.3933 175.66 82.84 171.86C88.2867 168.06 91.01 162.613 91.01 155.52C91.01 149.947 88.4767 145.767 83.41 142.98C78.3433 140.193 70.2367 137.533 59.09 135C48.45 132.72 39.71 130.123 32.87 127.21C26.03 124.297 20.6467 120.37 16.72 115.43C12.92 110.363 11.02 103.967 11.02 96.24C11.02 88.5133 13.11 81.6733 17.29 75.72C21.5967 69.64 27.55 64.9533 35.15 61.66C42.75 58.24 51.4267 56.53 61.18 56.53C70.1733 56.53 78.47 57.7967 86.07 60.33C93.67 62.8633 100.13 66.6 105.45 71.54C107.983 73.6933 109.25 76.29 109.25 79.33C109.25 81.4833 108.553 83.3833 107.16 85.03C105.893 86.6767 104.373 87.5 102.6 87.5C100.953 87.5 98.8633 86.6767 96.33 85.03C90.5033 80.5967 84.9933 77.43 79.8 75.53C74.7333 73.5033 68.59 72.49 61.37 72.49C51.6167 72.49 44.0167 74.5167 38.57 78.57C33.1233 82.4967 30.4 88.0067 30.4 95.1C30.4 101.18 32.8067 105.803 37.62 108.97C42.4333 112.01 50.16 114.797 60.8 117.33C71.9467 119.863 80.94 122.523 87.78 125.31C94.7467 127.97 100.257 131.707 104.31 136.52C108.49 141.207 110.58 147.287 110.58 154.76C110.58 162.36 108.427 169.137 104.12 175.09C99.94 180.917 93.9867 185.477 86.26 188.77C78.66 191.937 69.8567 193.52 59.85 193.52ZM182.201 97C190.181 97 197.274 99.0267 203.481 103.08C209.814 107.133 214.691 112.833 218.111 120.18C221.658 127.527 223.431 136.013 223.431 145.64C223.431 155.14 221.721 163.5 218.301 170.72C214.881 177.94 210.004 183.513 203.671 187.44C197.464 191.367 190.308 193.33 182.201 193.33C175.234 193.33 169.091 191.873 163.771 188.96C158.451 185.92 154.398 181.613 151.611 176.04V218.41C151.611 221.07 150.724 223.16 148.951 224.68C147.304 226.327 145.088 227.15 142.301 227.15C139.388 227.15 136.981 226.327 135.081 224.68C133.308 223.033 132.421 220.817 132.421 218.03V106.69C132.421 103.903 133.308 101.687 135.081 100.04C136.854 98.2667 139.198 97.38 142.111 97.38C144.898 97.38 147.178 98.2667 148.951 100.04C150.724 101.687 151.611 103.903 151.611 106.69V114.48C154.398 108.907 158.451 104.6 163.771 101.56C169.091 98.52 175.234 97 182.201 97ZM177.641 178.13C186.001 178.13 192.461 175.343 197.021 169.77C201.581 164.07 203.861 156.027 203.861 145.64C203.861 135.127 201.518 126.957 196.831 121.13C192.271 115.303 185.874 112.39 177.641 112.39C169.281 112.39 162.821 115.24 158.261 120.94C153.828 126.64 151.611 134.747 151.611 145.26C151.611 155.773 153.828 163.88 158.261 169.58C162.821 175.28 169.281 178.13 177.641 178.13ZM317.257 168.63C319.03 168.63 320.487 169.327 321.627 170.72C322.767 172.113 323.337 173.887 323.337 176.04C323.337 179.713 321.057 182.817 316.497 185.35C312.064 187.883 307.187 189.847 301.867 191.24C296.674 192.633 291.67 193.33 286.857 193.33C272.164 193.33 260.574 189.087 252.087 180.6C243.6 171.987 239.357 160.27 239.357 145.45C239.357 135.95 241.194 127.527 244.867 120.18C248.667 112.833 253.924 107.133 260.637 103.08C267.477 99.0267 275.204 97 283.817 97C296.23 97 306.047 100.99 313.267 108.97C320.487 116.95 324.097 127.717 324.097 141.27C324.097 146.337 321.817 148.87 317.257 148.87H258.547C259.814 168.503 269.25 178.32 286.857 178.32C291.544 178.32 295.597 177.687 299.017 176.42C302.437 175.153 306.047 173.507 309.847 171.48C310.227 171.227 311.24 170.72 312.887 169.96C314.66 169.073 316.117 168.63 317.257 168.63ZM284.197 111.06C276.85 111.06 270.96 113.403 266.527 118.09C262.094 122.777 259.434 129.363 258.547 137.85H307.567C307.187 129.237 304.97 122.65 300.917 118.09C296.99 113.403 291.417 111.06 284.197 111.06ZM423.143 176.99C425.423 178.89 426.563 181.233 426.563 184.02C426.563 186.427 425.74 188.517 424.093 190.29C422.447 192.063 420.483 192.95 418.203 192.95C415.797 192.95 413.643 192.063 411.743 190.29L364.433 148.49V183.64C364.433 186.68 363.547 189.023 361.773 190.67C360 192.19 357.72 192.95 354.933 192.95C352.147 192.95 349.803 192.19 347.903 190.67C346.13 189.023 345.243 186.68 345.243 183.64V66.41C345.243 63.37 346.13 61.09 347.903 59.57C349.803 57.9233 352.147 57.1 354.933 57.1C357.72 57.1 360 57.9233 361.773 59.57C363.547 61.09 364.433 63.37 364.433 66.41V140.89L407.753 100.42C409.907 98.52 411.997 97.57 414.023 97.57C416.43 97.57 418.52 98.4567 420.293 100.23C422.067 102.003 422.953 104.093 422.953 106.5C422.953 108.907 421.877 111.123 419.723 113.15L385.903 144.12L423.143 176.99ZM488.251 178.32C491.038 178.573 493.001 179.333 494.141 180.6C495.408 181.74 496.041 183.387 496.041 185.54C496.041 188.073 495.028 190.037 493.001 191.43C491.101 192.697 488.251 193.203 484.451 192.95L479.321 192.57C469.061 191.81 461.398 188.707 456.331 183.26C451.264 177.687 448.731 169.517 448.731 158.75V114.1H437.331C431.758 114.1 428.971 111.63 428.971 106.69C428.971 104.41 429.668 102.637 431.061 101.37C432.581 99.9767 434.671 99.28 437.331 99.28H448.731V79.71C448.731 76.7967 449.554 74.5167 451.201 72.87C452.974 71.2233 455.318 70.4 458.231 70.4C461.144 70.4 463.488 71.2233 465.261 72.87C467.034 74.5167 467.921 76.7967 467.921 79.71V99.28H486.731C489.391 99.28 491.418 99.9767 492.811 101.37C494.331 102.637 495.091 104.41 495.091 106.69C495.091 109.097 494.331 110.933 492.811 112.2C491.418 113.467 489.391 114.1 486.731 114.1H467.921V160.08C467.921 166.033 469.124 170.403 471.531 173.19C474.064 175.977 477.864 177.56 482.931 177.94L488.251 178.32ZM558.463 97.38C564.543 97 567.583 99.5967 567.583 105.17C567.583 107.957 566.887 110.047 565.493 111.44C564.1 112.833 561.693 113.657 558.273 113.91L552.573 114.48C544.593 115.24 538.64 118.027 534.713 122.84C530.913 127.653 529.013 133.48 529.013 140.32V183.83C529.013 186.87 528.127 189.15 526.353 190.67C524.58 192.19 522.3 192.95 519.513 192.95C516.727 192.95 514.383 192.19 512.483 190.67C510.71 189.15 509.823 186.87 509.823 183.83V106.5C509.823 103.587 510.71 101.37 512.483 99.85C514.383 98.2033 516.727 97.38 519.513 97.38C522.047 97.38 524.137 98.2033 525.783 99.85C527.557 101.37 528.443 103.523 528.443 106.31V115.43C530.977 109.857 534.65 105.613 539.463 102.7C544.277 99.7867 549.723 98.0767 555.803 97.57L558.463 97.38ZM651.224 97.38C654.137 97.38 656.417 98.2033 658.064 99.85C659.837 101.497 660.724 103.777 660.724 106.69V184.02C660.724 186.68 659.837 188.833 658.064 190.48C656.29 192.127 653.947 192.95 651.034 192.95C648.374 192.95 646.22 192.19 644.574 190.67C642.927 189.023 642.104 186.87 642.104 184.21V176.99C639.19 182.31 635.137 186.363 629.944 189.15C624.877 191.937 619.177 193.33 612.844 193.33C590.297 193.33 579.024 180.917 579.024 156.09V106.69C579.024 103.777 579.847 101.497 581.494 99.85C583.267 98.2033 585.674 97.38 588.714 97.38C591.627 97.38 593.907 98.2033 595.554 99.85C597.327 101.497 598.214 103.777 598.214 106.69V155.9C598.214 163.373 599.734 168.883 602.774 172.43C605.814 175.977 610.5 177.75 616.834 177.75C624.307 177.75 630.26 175.343 634.694 170.53C639.254 165.717 641.534 159.32 641.534 151.34V106.69C641.534 103.903 642.42 101.687 644.194 100.04C645.967 98.2667 648.31 97.38 651.224 97.38ZM793.977 97C814.751 97 825.137 109.477 825.137 134.43V183.83C825.137 186.743 824.251 189.023 822.477 190.67C820.704 192.19 818.361 192.95 815.447 192.95C812.661 192.95 810.381 192.19 808.607 190.67C806.834 189.023 805.947 186.743 805.947 183.83V134.62C805.947 126.893 804.554 121.32 801.767 117.9C798.981 114.353 794.611 112.58 788.657 112.58C781.691 112.58 776.181 114.987 772.127 119.8C768.074 124.487 766.047 130.947 766.047 139.18V183.83C766.047 186.743 765.161 189.023 763.387 190.67C761.614 192.19 759.271 192.95 756.357 192.95C753.571 192.95 751.291 192.19 749.517 190.67C747.744 189.023 746.857 186.743 746.857 183.83V134.62C746.857 126.893 745.464 121.32 742.677 117.9C739.891 114.353 735.521 112.58 729.567 112.58C722.601 112.58 717.027 114.987 712.847 119.8C708.794 124.487 706.767 130.947 706.767 139.18V183.83C706.767 186.743 705.881 189.023 704.107 190.67C702.334 192.19 700.054 192.95 697.267 192.95C694.481 192.95 692.137 192.19 690.237 190.67C688.464 189.023 687.577 186.743 687.577 183.83V106.5C687.577 103.713 688.527 101.497 690.427 99.85C692.327 98.2033 694.607 97.38 697.267 97.38C699.927 97.38 702.081 98.2033 703.727 99.85C705.501 101.37 706.387 103.523 706.387 106.31V113.34C709.174 108.02 713.037 103.967 717.977 101.18C722.917 98.3933 728.617 97 735.077 97C742.171 97 747.997 98.4567 752.557 101.37C757.244 104.283 760.727 108.78 763.007 114.86C765.794 109.413 769.911 105.107 775.357 101.94C780.804 98.6467 787.011 97 793.977 97Z" fill="white"/>
<path d="M9.717 319C9.03233 319 8.42667 318.789 7.9 318.368C7.426 317.947 7.189 317.42 7.189 316.788V265.438C7.189 264.701 7.39967 264.095 7.821 263.621C8.295 263.147 8.90067 262.91 9.638 262.91C10.428 262.91 11.0337 263.147 11.455 263.621C11.8763 264.042 12.087 264.648 12.087 265.438V314.734H39.105C39.7897 314.734 40.3163 314.918 40.685 315.287C41.1063 315.656 41.317 316.182 41.317 316.867C41.317 317.552 41.1063 318.078 40.685 318.447C40.3163 318.816 39.7897 319 39.105 319H9.717ZM63.611 279.737C68.2457 279.737 71.6954 280.948 73.96 283.371C76.2774 285.794 77.436 289.454 77.436 294.352V316.867C77.436 317.604 77.2254 318.21 76.804 318.684C76.3827 319.105 75.8034 319.316 75.066 319.316C74.3287 319.316 73.7494 319.105 73.328 318.684C72.9067 318.21 72.696 317.604 72.696 316.867V312.127C71.59 314.497 69.9837 316.34 67.877 317.657C65.7704 318.921 63.3477 319.553 60.609 319.553C58.1337 319.553 55.869 319.053 53.815 318.052C51.8137 317.051 50.2074 315.682 48.996 313.944C47.7847 312.206 47.179 310.257 47.179 308.098C47.1264 305.201 47.8374 302.963 49.312 301.383C50.7867 299.75 53.2357 298.592 56.659 297.907C60.0824 297.222 64.875 296.88 71.037 296.88H72.696V293.957C72.696 290.481 71.985 287.953 70.563 286.373C69.141 284.74 66.9027 283.924 63.848 283.924C59.9507 283.924 56.2377 284.951 52.709 287.005C52.551 287.11 52.1297 287.4 51.445 287.874C50.813 288.295 50.26 288.506 49.786 288.506C49.2594 288.506 48.8117 288.322 48.443 287.953C48.127 287.532 47.969 287.031 47.969 286.452C47.969 285.293 48.8907 284.161 50.734 283.055C52.5774 282.002 54.6314 281.185 56.896 280.606C59.1607 280.027 61.399 279.737 63.611 279.737ZM61.004 315.366C64.4274 315.366 67.2187 314.207 69.378 311.89C71.59 309.573 72.696 306.623 72.696 303.042V300.435H71.195C66.139 300.435 62.268 300.646 59.582 301.067C56.896 301.488 55 302.226 53.894 303.279C52.788 304.28 52.235 305.754 52.235 307.703C52.235 309.915 53.0777 311.758 54.763 313.233C56.4484 314.655 58.5287 315.366 61.004 315.366ZM108.038 279.737C111.409 279.737 114.384 280.553 116.965 282.186C119.546 283.819 121.547 286.136 122.969 289.138C124.391 292.087 125.102 295.537 125.102 299.487C125.102 303.49 124.391 307.018 122.969 310.073C121.547 313.075 119.546 315.419 116.965 317.104C114.384 318.737 111.409 319.553 108.038 319.553C104.931 319.553 102.245 318.895 99.9801 317.578C97.7154 316.209 96.0037 314.234 94.8451 311.653V316.867C94.8451 317.604 94.6344 318.21 94.2131 318.684C93.7917 319.105 93.2124 319.316 92.4751 319.316C91.7377 319.316 91.1321 319.105 90.6581 318.684C90.2367 318.21 90.0261 317.604 90.0261 316.867V265.359C90.0261 264.622 90.2367 264.042 90.6581 263.621C91.1321 263.147 91.7377 262.91 92.4751 262.91C93.2124 262.91 93.7917 263.147 94.2131 263.621C94.6344 264.042 94.8451 264.622 94.8451 265.359V287.637C96.0037 285.056 97.7154 283.108 99.9801 281.791C102.245 280.422 104.931 279.737 108.038 279.737ZM107.406 315.287C111.409 315.287 114.516 313.891 116.728 311.1C118.993 308.309 120.125 304.438 120.125 299.487C120.125 294.536 118.993 290.718 116.728 288.032C114.516 285.293 111.382 283.924 107.327 283.924C103.324 283.924 100.243 285.293 98.0841 288.032C95.9247 290.771 94.8451 294.642 94.8451 299.645C94.8451 304.648 95.9247 308.519 98.0841 311.258C100.296 313.944 103.403 315.287 107.406 315.287ZM199.298 316.077C199.72 316.604 199.93 317.078 199.93 317.499C199.93 318.078 199.693 318.579 199.219 319C198.798 319.421 198.298 319.632 197.718 319.632C197.139 319.632 196.639 319.395 196.217 318.921L188.554 310.705C186.237 313.602 183.551 315.814 180.496 317.341C177.494 318.816 174.255 319.553 170.779 319.553C167.461 319.553 164.486 318.974 161.852 317.815C159.219 316.656 157.165 314.997 155.69 312.838C154.216 310.679 153.478 308.177 153.478 305.333C153.478 301.857 154.558 298.776 156.717 296.09C158.929 293.351 162.3 290.586 166.829 287.795L167.066 287.637C164.696 285.056 162.932 282.818 161.773 280.922C160.667 278.973 160.114 276.84 160.114 274.523C160.114 270.784 161.326 267.887 163.748 265.833C166.224 263.779 169.331 262.752 173.07 262.752C176.652 262.752 179.522 263.726 181.681 265.675C183.841 267.571 184.92 270.204 184.92 273.575C184.92 276.419 184.025 278.921 182.234 281.08C180.496 283.239 177.626 285.636 173.623 288.269L187.922 303.832C189.871 299.777 191.003 294.773 191.319 288.822C191.372 288.032 191.635 287.426 192.109 287.005C192.583 286.584 193.11 286.373 193.689 286.373C194.321 286.373 194.822 286.584 195.19 287.005C195.612 287.426 195.796 288.032 195.743 288.822C195.375 295.985 193.768 302.068 190.924 307.071L199.298 316.077ZM164.933 274.523C164.933 276.366 165.381 278.025 166.276 279.5C167.172 280.975 168.673 282.897 170.779 285.267C174.361 282.897 176.862 280.896 178.284 279.263C179.706 277.63 180.417 275.84 180.417 273.891C180.417 271.784 179.759 270.073 178.442 268.756C177.126 267.439 175.335 266.781 173.07 266.781C170.648 266.781 168.673 267.492 167.145 268.914C165.671 270.283 164.933 272.153 164.933 274.523ZM171.016 315.445C173.86 315.445 176.546 314.813 179.074 313.549C181.602 312.232 183.814 310.257 185.71 307.624L169.831 290.639L169.515 290.876C165.249 293.615 162.3 296.037 160.667 298.144C159.087 300.198 158.297 302.568 158.297 305.254C158.297 308.467 159.456 310.968 161.773 312.759C164.091 314.55 167.172 315.445 171.016 315.445ZM230.441 319C229.703 319 229.071 318.763 228.545 318.289C228.071 317.815 227.834 317.236 227.834 316.551V265.754C227.834 265.069 228.071 264.49 228.545 264.016C229.071 263.542 229.703 263.305 230.441 263.305H245.767C254.562 263.305 261.356 265.701 266.149 270.494C270.994 275.287 273.417 282.16 273.417 291.113C273.417 300.066 270.994 306.966 266.149 311.811C261.356 316.604 254.562 319 245.767 319H230.441ZM245.53 314.734C260.698 314.734 268.282 306.86 268.282 291.113C268.282 275.418 260.698 267.571 245.53 267.571H232.732V314.734H245.53ZM314.137 310.784C314.611 310.784 315.006 310.995 315.322 311.416C315.69 311.785 315.875 312.232 315.875 312.759C315.875 313.918 314.979 315.05 313.189 316.156C309.397 318.421 305.394 319.553 301.181 319.553C295.335 319.553 290.726 317.789 287.356 314.26C283.985 310.731 282.3 305.886 282.3 299.724C282.3 295.774 283.037 292.298 284.512 289.296C286.039 286.241 288.146 283.898 290.832 282.265C293.57 280.58 296.704 279.737 300.233 279.737C305.183 279.737 309.081 281.343 311.925 284.556C314.821 287.716 316.27 292.087 316.27 297.67C316.27 298.618 316.059 299.329 315.638 299.803C315.216 300.224 314.532 300.435 313.584 300.435H287.277C287.435 305.28 288.699 308.967 291.069 311.495C293.439 314.023 296.783 315.287 301.102 315.287C303.366 315.287 305.262 314.997 306.79 314.418C308.317 313.786 309.95 312.97 311.688 311.969C312.846 311.179 313.663 310.784 314.137 310.784ZM300.233 283.687C296.546 283.687 293.597 284.846 291.385 287.163C289.173 289.48 287.856 292.719 287.435 296.88H311.846C311.74 292.667 310.687 289.428 308.686 287.163C306.684 284.846 303.867 283.687 300.233 283.687ZM338.735 319.553C336.523 319.553 334.337 319.263 332.178 318.684C330.071 318.052 328.201 317.209 326.569 316.156C325.568 315.471 324.857 314.892 324.436 314.418C324.067 313.891 323.883 313.312 323.883 312.68C323.883 312.153 324.041 311.706 324.357 311.337C324.725 310.968 325.147 310.784 325.621 310.784C326.095 310.784 326.911 311.179 328.07 311.969C329.597 312.97 331.151 313.786 332.731 314.418C334.363 315.05 336.391 315.366 338.814 315.366C341.921 315.366 344.344 314.813 346.082 313.707C347.82 312.548 348.689 310.916 348.689 308.809C348.689 307.545 348.373 306.518 347.741 305.728C347.109 304.885 346.055 304.174 344.581 303.595C343.106 302.963 340.999 302.357 338.261 301.778C333.573 300.725 330.229 299.382 328.228 297.749C326.279 296.064 325.305 293.825 325.305 291.034C325.305 287.663 326.621 284.951 329.255 282.897C331.888 280.79 335.311 279.737 339.525 279.737C341.579 279.737 343.527 280 345.371 280.527C347.267 281.054 348.899 281.817 350.269 282.818C352.112 284.082 353.034 285.32 353.034 286.531C353.034 287.058 352.849 287.532 352.481 287.953C352.165 288.322 351.77 288.506 351.296 288.506C350.769 288.506 349.953 288.085 348.847 287.242C347.425 286.241 346.003 285.451 344.581 284.872C343.211 284.24 341.447 283.924 339.288 283.924C336.549 283.924 334.363 284.556 332.731 285.82C331.098 287.031 330.282 288.69 330.282 290.797C330.282 292.008 330.545 293.009 331.072 293.799C331.651 294.589 332.599 295.3 333.916 295.932C335.285 296.511 337.234 297.091 339.762 297.67C343.396 298.513 346.187 299.408 348.136 300.356C350.084 301.304 351.48 302.436 352.323 303.753C353.165 305.07 353.587 306.755 353.587 308.809C353.587 312.022 352.217 314.629 349.479 316.63C346.793 318.579 343.211 319.553 338.735 319.553ZM366.506 319.395C365.769 319.395 365.163 319.184 364.689 318.763C364.268 318.342 364.057 317.736 364.057 316.946V282.344C364.057 281.554 364.268 280.948 364.689 280.527C365.163 280.106 365.769 279.895 366.506 279.895C367.244 279.895 367.823 280.106 368.244 280.527C368.666 280.948 368.876 281.554 368.876 282.344V316.946C368.876 317.736 368.666 318.342 368.244 318.763C367.823 319.184 367.244 319.395 366.506 319.395ZM366.506 270.968C365.453 270.968 364.584 270.652 363.899 270.02C363.267 269.388 362.951 268.572 362.951 267.571C362.951 266.518 363.267 265.675 363.899 265.043C364.584 264.411 365.453 264.095 366.506 264.095C367.56 264.095 368.402 264.411 369.034 265.043C369.719 265.675 370.061 266.518 370.061 267.571C370.061 268.572 369.719 269.388 369.034 270.02C368.402 270.652 367.56 270.968 366.506 270.968ZM412.064 279.895C412.801 279.895 413.381 280.132 413.802 280.606C414.276 281.027 414.513 281.607 414.513 282.344V316.788C414.513 322.371 413.117 326.584 410.326 329.428C407.587 332.325 403.506 333.773 398.081 333.773C395.237 333.773 392.683 333.483 390.418 332.904C388.206 332.377 386.126 331.535 384.177 330.376C382.281 329.217 381.333 328.085 381.333 326.979C381.333 326.4 381.491 325.926 381.807 325.557C382.176 325.188 382.623 325.004 383.15 325.004C383.466 325.004 383.887 325.136 384.414 325.399C384.993 325.715 385.388 325.926 385.599 326.031C387.39 327.032 389.233 327.848 391.129 328.48C393.025 329.165 395.369 329.507 398.16 329.507C402.005 329.507 404.901 328.48 406.85 326.426C408.799 324.372 409.773 321.317 409.773 317.262V309.757C408.667 312.338 406.955 314.339 404.638 315.761C402.373 317.13 399.608 317.815 396.343 317.815C392.972 317.815 389.97 317.025 387.337 315.445C384.756 313.865 382.729 311.627 381.254 308.73C379.832 305.833 379.121 302.515 379.121 298.776C379.121 295.037 379.832 291.719 381.254 288.822C382.729 285.925 384.756 283.687 387.337 282.107C389.97 280.527 392.972 279.737 396.343 279.737C399.556 279.737 402.294 280.422 404.559 281.791C406.824 283.108 408.535 285.056 409.694 287.637V282.344C409.694 281.607 409.905 281.027 410.326 280.606C410.747 280.132 411.327 279.895 412.064 279.895ZM396.975 313.549C400.978 313.549 404.085 312.232 406.297 309.599C408.562 306.966 409.694 303.358 409.694 298.776C409.694 294.194 408.562 290.586 406.297 287.953C404.032 285.267 400.925 283.924 396.975 283.924C392.972 283.924 389.839 285.241 387.574 287.874C385.309 290.507 384.177 294.141 384.177 298.776C384.177 303.411 385.309 307.045 387.574 309.678C389.839 312.259 392.972 313.549 396.975 313.549ZM445.098 279.737C454.314 279.737 458.923 284.688 458.923 294.589V316.946C458.923 317.683 458.712 318.289 458.291 318.763C457.869 319.184 457.29 319.395 456.553 319.395C455.815 319.395 455.21 319.184 454.736 318.763C454.314 318.289 454.104 317.683 454.104 316.946V294.905C454.104 291.113 453.34 288.348 451.813 286.61C450.285 284.872 447.863 284.003 444.545 284.003C440.753 284.003 437.698 285.162 435.381 287.479C433.116 289.796 431.984 292.904 431.984 296.801V316.946C431.984 317.683 431.773 318.289 431.352 318.763C430.93 319.184 430.351 319.395 429.614 319.395C428.876 319.395 428.271 319.184 427.797 318.763C427.375 318.289 427.165 317.683 427.165 316.946V282.344C427.165 281.607 427.375 281.027 427.797 280.606C428.271 280.132 428.876 279.895 429.614 279.895C430.298 279.895 430.851 280.106 431.273 280.527C431.694 280.948 431.905 281.528 431.905 282.265V287.242C433.116 284.819 434.854 282.976 437.119 281.712C439.436 280.395 442.096 279.737 445.098 279.737Z" fill="white"/>
</svg>
