<svg width="65" height="65" viewBox="0 0 65 65" fill="none" xmlns="http://www.w3.org/2000/svg">
<path d="M62.2887 50.1966C60.7365 48.6446 58.6693 47.763 56.531 47.6692L54.071 45.2092C55.4764 42.9082 56.5052 40.4264 57.1374 37.8122H63.4994V25.5181H57.1374C56.5053 22.904 55.4765 20.4224 54.071 18.1212L58.5714 13.6209L49.8783 4.92779L45.3779 9.42801C43.0769 8.0229 40.5951 6.9942 37.9809 6.36198V0H25.687V6.36198C23.0727 6.99407 20.591 8.02302 18.2901 9.42826L13.7896 4.92805L5.09651 13.6211L9.59673 18.1215C8.19136 20.4225 7.16254 22.9043 6.53044 25.5184H0.168335V37.8125H6.53044C7.16254 40.4268 8.19149 42.9086 9.59673 45.2095L5.09651 49.7098L13.7896 58.4029L18.2901 53.9027C20.591 55.3079 23.0727 56.3368 25.687 56.969V63.3311H37.9809V56.969C40.5951 56.3369 43.0769 55.3079 45.3778 53.9027L47.4995 56.0243C47.4239 58.3894 48.3149 60.7434 50.0287 62.4571C51.69 64.1184 53.9007 65 56.155 65C57.2572 65 58.3698 64.7893 59.4336 64.3557L60.7608 63.8149L55.1057 58.1599L55.7213 55.8895L57.9915 55.2739L63.6467 60.929L64.1875 59.6018C65.5074 56.3616 64.7621 52.6701 62.2887 50.1966ZM44.9933 51.8947C42.4916 53.5255 39.7462 54.6636 36.8329 55.2772L36.0774 55.4363V61.4275H27.59V55.4363L26.8345 55.2772C23.9216 54.6636 21.1759 53.5255 18.6741 51.8947L18.0274 51.4732L13.7892 55.7113L7.78778 49.7096L12.0258 45.4714L11.6042 44.8247C9.9734 42.3231 8.83539 39.5776 8.2217 36.6643L8.06263 35.9088H2.07174V27.4213H8.06276L8.22183 26.6658C8.83539 23.753 9.97339 21.0075 11.6044 18.5055L12.026 17.8588L7.78791 13.6206L13.7895 7.61906L18.0278 11.8574L18.6745 11.4359C21.1762 9.80493 23.9217 8.66693 26.8349 8.05337L27.5904 7.89429V1.9034H36.0778V7.89455L36.8333 8.05362C39.7463 8.66718 42.4919 9.80531 44.9937 11.4361L45.6404 11.8576L49.8785 7.61957L55.8801 13.6211L51.6419 17.8593L52.0635 18.506C53.6945 21.008 54.8325 23.7535 55.4461 26.6663L55.6051 27.4218H61.5963V35.9093H55.6051L55.4461 36.6648C54.8326 39.5777 53.6945 42.3235 52.0635 44.8252L51.7998 45.2294L43.8718 37.301L43.0349 36.4641C43.6869 34.9485 44.017 33.3376 44.017 31.6658C44.017 24.9482 38.5518 19.4829 31.8343 19.4829C25.1167 19.4829 19.6515 24.9481 19.6515 31.6658C19.6515 38.3834 25.1167 43.8485 31.8343 43.8485C33.5 43.8485 35.1056 43.5208 36.6167 42.8732L45.2545 51.5115L45.3838 51.6408L44.9933 51.8947ZM38.8947 26.1526C36.4214 23.6791 32.7297 22.9336 29.4898 24.2538L28.1625 24.7946L33.8178 30.4497L33.2022 32.72L30.9319 33.3356L25.2768 27.6805L24.736 29.0077C23.416 32.2475 24.1614 35.9391 26.6347 38.4127C28.6988 40.4768 31.6739 41.3551 34.5155 40.7717L35.1438 41.4C34.0847 41.7613 32.9765 41.9449 31.834 41.9449C26.1659 41.9449 21.5545 37.3335 21.5545 31.6654C21.5545 25.9972 26.1659 21.3858 31.834 21.3858C37.5021 21.3858 42.1135 25.9972 42.1135 31.6654C42.1135 32.8141 41.9281 33.9278 41.5629 34.9921L41.1304 34.5596C41.9337 31.5876 41.0878 28.3456 38.8947 26.1526ZM62.837 57.4275L58.5577 53.1482L54.1699 54.338L52.9801 58.7257L57.2594 63.0052C55.136 63.3567 52.9419 62.6785 51.3744 61.1111C49.9246 59.6613 49.2302 57.6242 49.4322 55.6252C49.4402 55.5475 49.4491 55.47 49.4597 55.3927C49.4649 55.3543 49.4699 55.3157 49.4758 55.2775C49.4932 55.1659 49.5134 55.0552 49.5363 54.9448C49.542 54.9174 49.5477 54.89 49.5538 54.8626C49.5794 54.7462 49.6076 54.6302 49.6394 54.5156C49.6446 54.4967 49.6503 54.4779 49.6556 54.459C49.6871 54.3488 49.7214 54.2397 49.7583 54.1315C49.8876 53.8602 50.6145 52.3928 51.679 51.3285L50.3333 49.9826C49.6166 50.6993 49.0403 51.5384 48.6397 52.2052L42.3824 45.9476L37.0097 40.5746H37.0096L35.094 38.6589L34.5604 38.805C32.2164 39.4481 29.6951 38.7817 27.9804 37.0671C26.413 35.4996 25.7347 33.3054 26.0863 31.182L30.3657 35.4613L34.7534 34.2714L35.9432 29.8838L31.6638 25.6043C33.7873 25.2533 35.9815 25.9311 37.5489 27.4984C39.373 29.3225 40.0028 32.0764 39.1536 34.5144L38.9877 34.9907C38.7138 35.4692 38.2796 36.1416 37.7426 36.6788L39.0885 38.0243C39.5898 37.523 40.0089 36.9508 40.3293 36.4503L53.8291 49.9508L54.3625 49.8047C54.5083 49.7647 54.6548 49.7298 54.8015 49.6998C54.8274 49.6945 54.8536 49.6901 54.8796 49.6852C54.9267 49.6762 54.9737 49.6669 55.0206 49.6589C55.0605 49.6522 55.1005 49.6466 55.1404 49.6405C55.1741 49.6354 55.2079 49.6297 55.2417 49.6251C55.2803 49.6199 55.319 49.6159 55.3574 49.6113C55.3934 49.607 55.4294 49.6022 55.4654 49.5986C55.4924 49.5958 55.5196 49.594 55.5467 49.5916C55.5951 49.5873 55.6435 49.5826 55.6916 49.5794C55.6986 49.5789 55.7057 49.5788 55.7128 49.5783C57.6366 49.4534 59.554 50.1539 60.9425 51.5426C62.5103 53.1099 63.1886 55.3041 62.837 57.4275Z" fill="#263238"/>
<path d="M36.5088 48.5335L37.0191 50.3671C37.8169 50.145 38.6072 49.8684 39.3685 49.545L38.6245 47.7932C37.9389 48.0846 37.2271 48.3335 36.5088 48.5335Z" fill="#263238"/>
<path d="M31.8379 49.1684C22.2568 49.1684 14.4619 41.3735 14.4619 31.7924C14.4619 30.8031 14.5457 29.8117 14.7107 28.8452L12.8346 28.5248C12.6515 29.5965 12.5586 30.696 12.5586 31.7924C12.5586 42.423 21.2072 51.0715 31.8377 51.0715C32.4626 51.0715 33.0933 51.0413 33.7119 50.9814L33.5291 49.087C32.9709 49.141 32.4019 49.1684 31.8379 49.1684Z" fill="#263238"/>
<path d="M19.8174 19.2451L18.5005 17.871C17.9572 18.3917 17.4391 18.9498 16.9604 19.5299L18.4285 20.7412C18.86 20.2181 19.3274 19.7146 19.8174 19.2451Z" fill="#263238"/>
<path d="M31.8379 14.4163C33.8802 14.4163 35.8794 14.7671 37.7802 15.4588L38.4311 13.6702C36.321 12.9023 34.1027 12.5131 31.8379 12.5131C27.601 12.5131 23.5807 13.8613 20.2115 16.412L21.3603 17.9294C24.396 15.6312 28.0193 14.4163 31.8379 14.4163Z" fill="#263238"/>
</svg>
