<svg width="64" height="64" viewBox="0 0 64 64" fill="none" xmlns="http://www.w3.org/2000/svg">
<path d="M6.19354 20.6451H10.3226V22.7097H6.19354V20.6451Z" fill="#263238"/>
<path d="M60.9032 16.5161C62.6104 16.5161 64 15.1265 64 13.4194V3.09677C64 1.38962 62.6104 0 60.9032 0H46.4516C44.7445 0 43.3548 1.38962 43.3548 3.09677V13.4194C43.3548 15.1265 44.7445 16.5161 46.4516 16.5161H49.5484V18.5806H47.4839V20.6452H52.6452V30.9677H48.3851C47.5615 30.1638 46.5474 29.5484 45.4123 29.2097C45.4173 29.1053 45.4194 29.0045 45.4194 28.9032C45.4194 24.3498 41.7147 20.6452 37.1613 20.6452C34.3362 20.6452 31.7102 22.1149 30.2061 24.4657C29.1467 23.9899 28.001 23.7419 26.8387 23.7419C23.4128 23.7419 20.3281 25.9012 19.1215 29.0685C18.3372 29.2369 17.6063 29.5383 16.9425 29.9355H9.29032V26.8387H13.4194C15.1265 26.8387 16.5161 25.4491 16.5161 23.7419V3.09677C16.5161 1.38962 15.1265 0 13.4194 0H3.09677C1.38962 0 0 1.38962 0 3.09677V23.7419C0 25.4491 1.38962 26.8387 3.09677 26.8387H7.22581V32H14.747C14.308 32.6265 13.9672 33.318 13.7434 34.0645H9.29032V45.4194H5.16129C3.45413 45.4194 2.06452 46.809 2.06452 48.5161V57.8064H0V60.9032C0 62.6104 1.38962 64 3.09677 64H19.6129C21.3201 64 22.7097 62.6104 22.7097 60.9032V57.8064H20.6452V48.5161C20.6452 46.809 19.2555 45.4194 17.5484 45.4194H11.3548V36.129H13.4194C13.4194 40.1124 16.6618 43.3548 20.6452 43.3548H43.3548C46.9874 43.3548 49.9945 40.6568 50.498 37.1613H54.7097V45.4194H47.4839V64H64V45.4194H56.7742V35.0968H50.4939C50.3866 34.37 50.1638 33.6784 49.8518 33.0323H54.7097V20.6452H59.871V18.5806H57.8064V16.5161H60.9032ZM14.4516 16.5161H2.06452V6.19355H14.4516V16.5161ZM3.09677 2.06452H13.4194C13.9889 2.06452 14.4516 2.52722 14.4516 3.09677V4.12903H2.06452V3.09677C2.06452 2.52722 2.52722 2.06452 3.09677 2.06452ZM2.06452 23.7419V18.5806H14.4516V23.7419C14.4516 24.3115 13.9889 24.7742 13.4194 24.7742H3.09677C2.52722 24.7742 2.06452 24.3115 2.06452 23.7419ZM20.6452 60.9032C20.6452 61.4728 20.1825 61.9355 19.6129 61.9355H3.09677C2.52722 61.9355 2.06452 61.4728 2.06452 60.9032V59.871H20.6452V60.9032ZM18.5806 48.5161V57.8064H4.12903V48.5161C4.12903 47.9466 4.59173 47.4839 5.16129 47.4839H17.5484C18.1179 47.4839 18.5806 47.9466 18.5806 48.5161ZM49.5484 61.9355V55.7419H61.9355V61.9355H49.5484ZM61.9355 53.6774H49.5484V47.4839H61.9355V53.6774ZM43.3548 41.2903H20.6452C17.7994 41.2903 15.4839 38.9748 15.4839 36.129C15.4839 33.5197 17.437 31.3185 20.0257 31.0091L20.7031 30.9274L20.8942 30.2722C21.6578 27.6426 24.1033 25.8064 26.8387 25.8064C27.9783 25.8064 29.0973 26.1265 30.0781 26.7303L31.0635 27.3382L31.5549 26.2883C32.5711 24.1134 34.7717 22.7097 37.1613 22.7097C40.5771 22.7097 43.3548 25.4874 43.3548 28.9032C43.3548 29.188 43.3291 29.4914 43.2732 29.8579L43.1174 30.879L44.1381 31.0338C46.6341 31.4148 48.5161 33.6053 48.5161 36.129C48.5161 38.9748 46.2006 41.2903 43.3548 41.2903ZM46.4516 2.06452H60.9032C61.4728 2.06452 61.9355 2.52722 61.9355 3.09677V10.3226H45.4194V3.09677C45.4194 2.52722 45.8821 2.06452 46.4516 2.06452ZM45.4194 13.4194V12.3871H61.9355V13.4194C61.9355 13.9889 61.4728 14.4516 60.9032 14.4516H46.4516C45.8821 14.4516 45.4194 13.9889 45.4194 13.4194ZM55.7419 18.5806H51.6129V16.5161H55.7419V18.5806Z" fill="#263238"/>
<path d="M51.6129 49.5483H53.6774V51.6129H51.6129V49.5483Z" fill="#263238"/>
<path d="M57.8065 57.8064H59.871V59.8709H57.8065V57.8064Z" fill="#263238"/>
<path d="M55.7419 49.5483H59.871V51.6129H55.7419V49.5483Z" fill="#263238"/>
<path d="M51.6129 57.8064H55.7419V59.8709H51.6129V57.8064Z" fill="#263238"/>
</svg>
