<svg width="77" height="77" viewBox="0 0 77 77" fill="none" xmlns="http://www.w3.org/2000/svg">
<path d="M71.048 8.43835H5.95205C2.67014 8.43835 0 11.1085 0 14.3904V62.6096C0 65.8915 2.67014 68.5616 5.95205 68.5616H71.048C74.3299 68.5616 77 65.8915 77 62.6096V14.3904C77 11.1085 74.3299 8.43835 71.048 8.43835ZM5.95205 10.6986H71.048C73.0835 10.6986 74.7397 12.3548 74.7397 14.3904V18.0822H2.26027V14.3904C2.26027 12.3548 3.91645 10.6986 5.95205 10.6986ZM71.048 66.3014H5.95205C3.91645 66.3014 2.26027 64.6452 2.26027 62.6096V20.3425H74.7397V62.6096C74.7397 64.6452 73.0835 66.3014 71.048 66.3014Z" fill="#263238"/>
<path d="M5.95207 15.5205C6.24892 15.5205 6.54124 15.4 6.7507 15.189C6.96166 14.9796 7.0822 14.6872 7.0822 14.3904C7.0822 14.0935 6.96166 13.8012 6.7507 13.5918C6.54124 13.3808 6.24892 13.2603 5.95207 13.2603C5.65522 13.2603 5.36289 13.3808 5.15344 13.5918C4.94248 13.8012 4.82193 14.0935 4.82193 14.3904C4.82193 14.6872 4.94248 14.9796 5.15344 15.189C5.36289 15.4 5.65522 15.5205 5.95207 15.5205Z" fill="#263238"/>
<path d="M9.56849 15.5205C9.86534 15.5205 10.1577 15.4 10.3671 15.189C10.5781 14.9796 10.6986 14.6872 10.6986 14.3904C10.6986 14.0935 10.5781 13.8012 10.3671 13.5918C10.1577 13.3808 9.86534 13.2603 9.56849 13.2603C9.27164 13.2603 8.97931 13.3808 8.76986 13.5918C8.5589 13.8012 8.43835 14.0935 8.43835 14.3904C8.43835 14.6872 8.5589 14.9796 8.76986 15.189C8.97931 15.4 9.27164 15.5205 9.56849 15.5205Z" fill="#263238"/>
<path d="M13.1849 15.5205C13.4818 15.5205 13.7741 15.4 13.9835 15.189C14.1945 14.9796 14.3151 14.6872 14.3151 14.3904C14.3151 14.0935 14.1945 13.8012 13.9835 13.5918C13.7741 13.3808 13.4818 13.2603 13.1849 13.2603C12.8881 13.2603 12.5957 13.3808 12.3863 13.5918C12.1753 13.8012 12.0548 14.0935 12.0548 14.3904C12.0548 14.6872 12.1753 14.9796 12.3863 15.189C12.5957 15.4 12.8881 15.5205 13.1849 15.5205Z" fill="#263238"/>
<path d="M43.6646 28.9847C43.0701 28.7956 42.4342 29.1243 42.245 29.719L33.8066 56.2396C33.6174 56.8343 33.9462 57.4699 34.5409 57.6592C34.6548 57.6955 34.7702 57.7127 34.8839 57.7127C35.3629 57.7127 35.8076 57.4057 35.9605 56.9249L44.3989 30.4043C44.5881 29.8096 44.2593 29.174 43.6646 28.9847Z" fill="#263238"/>
<path d="M48.9429 31.6735C48.5016 31.2322 47.786 31.2322 47.3448 31.6735C46.9034 32.1149 46.9034 32.8304 47.3448 33.2717L57.395 43.3219L47.3448 53.3722C46.9034 53.8135 46.9034 54.529 47.3448 54.9704C47.5654 55.191 47.8547 55.3014 48.1438 55.3014C48.433 55.3014 48.7223 55.1911 48.9429 54.9704L59.7922 44.121C60.2336 43.6797 60.2336 42.9642 59.7922 42.5229L48.9429 31.6735Z" fill="#263238"/>
<path d="M30.8607 31.6735C30.4194 31.2322 29.7038 31.2322 29.2626 31.6735L18.4133 42.5229C17.9719 42.9642 17.9719 43.6797 18.4133 44.121L29.2626 54.9704C29.4832 55.191 29.7725 55.3014 30.0617 55.3014C30.3508 55.3014 30.6401 55.1911 30.8607 54.9704C31.3021 54.529 31.3021 53.8135 30.8607 53.3722L20.8105 43.3219L30.8607 33.2717C31.3021 32.8304 31.3021 32.1149 30.8607 31.6735Z" fill="#263238"/>
<path d="M18.0068 15.5205H63.8151C64.4392 15.5205 64.9452 15.0145 64.9452 14.3904C64.9452 13.7663 64.4392 13.2603 63.8151 13.2603H18.0068C17.3827 13.2603 16.8767 13.7663 16.8767 14.3904C16.8767 15.0145 17.3827 15.5205 18.0068 15.5205Z" fill="#263238"/>
<path d="M68.637 15.5205H71.0479C71.6721 15.5205 72.1781 15.0145 72.1781 14.3904C72.1781 13.7663 71.6721 13.2603 71.0479 13.2603H68.637C68.0128 13.2603 67.5068 13.7663 67.5068 14.3904C67.5068 15.0145 68.0128 15.5205 68.637 15.5205Z" fill="#263238"/>
</svg>
