<svg width="680" height="680" viewBox="0 0 680 680" fill="none" xmlns="http://www.w3.org/2000/svg">
<g id="developer">
<g id="background">
<g id="freepik  background complete  inject 1  inject 637">
<path id="Vector" d="M680 520.064H0V520.404H680V520.064Z" fill="#EBEBEB"/>
<path id="Vector_2" d="M235.579 528.741H204.054V529.081H235.579V528.741Z" fill="#EBEBEB"/>
<path id="Vector_3" d="M623.927 536.03H546.856V536.37H623.927V536.03Z" fill="#EBEBEB"/>
<path id="Vector_4" d="M135.17 536.03H58.0992V536.37H135.17V536.03Z" fill="#EBEBEB"/>
<path id="Vector_5" d="M322.32 459.408H59.7176C57.6604 459.404 55.6887 458.585 54.2353 457.129C52.7819 455.673 51.9656 453.7 51.9656 451.642V82.4976C51.9835 80.4522 52.8077 78.4964 54.2592 77.0552C55.7107 75.6139 57.6722 74.8035 59.7176 74.8H322.32C324.38 74.8 326.355 75.6181 327.811 77.0745C329.267 78.5308 330.086 80.506 330.086 82.5656V451.642C330.086 453.702 329.267 455.677 327.811 457.134C326.355 458.59 324.38 459.408 322.32 459.408ZM59.7176 75.072C57.7506 75.0756 55.8654 75.8595 54.4757 77.2517C53.0861 78.6439 52.3056 80.5306 52.3056 82.4976V451.642C52.3056 453.609 53.0861 455.496 54.4757 456.888C55.8654 458.28 57.7506 459.064 59.7176 459.068H322.32C324.287 459.061 326.172 458.276 327.563 456.885C328.954 455.494 329.738 453.61 329.746 451.642V82.4976C329.738 80.5304 328.954 78.6458 327.563 77.2548C326.172 75.8638 324.287 75.0792 322.32 75.072H59.7176Z" fill="#EBEBEB"/>
<path id="Vector_6" d="M616.502 459.408H353.886C351.828 459.401 349.857 458.58 348.402 457.126C346.948 455.671 346.127 453.7 346.12 451.642V82.4976C346.141 80.4509 346.969 78.4952 348.422 77.0543C349.876 75.6134 351.839 74.8035 353.886 74.8H616.502C618.545 74.8071 620.503 75.619 621.951 77.0599C623.4 78.5008 624.222 80.4545 624.24 82.4976V451.642C624.242 452.66 624.043 453.669 623.655 454.61C623.267 455.551 622.698 456.407 621.979 457.128C621.261 457.849 620.407 458.421 619.467 458.813C618.527 459.204 617.52 459.406 616.502 459.408ZM353.886 75.072C351.918 75.0792 350.034 75.8638 348.643 77.2548C347.252 78.6458 346.467 80.5304 346.46 82.4976V451.642C346.467 453.61 347.252 455.494 348.643 456.885C350.034 458.276 351.918 459.061 353.886 459.068H616.502C618.469 459.061 620.353 458.276 621.744 456.885C623.135 455.494 623.92 453.61 623.927 451.642V82.4976C623.92 80.5304 623.135 78.6458 621.744 77.2548C620.353 75.8638 618.469 75.0792 616.502 75.072H353.886Z" fill="#EBEBEB"/>
<path id="Vector_7" d="M612.87 562.102H583.494V562.442H612.87V562.102Z" fill="#EBEBEB"/>
<path id="Vector_8" d="M636.67 398.874C633.828 390.714 611.402 401.812 602.358 415.317C596.306 424.306 592.606 433.922 590.893 446.814C591.097 432.072 591.328 416.282 591.559 401.363C593.395 397.65 597.584 389.055 600.617 382.323C610.681 359.638 634.617 351.206 642.886 336.872C653.766 318.104 653.657 289.966 644.436 279.82C636.48 270.939 609.865 330.616 606.873 337.28C598.73 355.126 593.597 374.197 591.682 393.72C591.886 379.698 592.103 366.833 592.28 356.85C592.838 324.469 593.545 314.051 593.858 310.855C594.973 309.278 596.278 307.455 597.026 306.476C603.446 298.207 617.698 288.361 624.825 276.338C635.229 258.781 633.542 237.769 626.253 230.003C618.623 221.843 605.132 241.155 597.978 260.304C590.825 279.453 593.898 297.799 591.872 313.711C591.45 316.88 591.015 328.671 590.607 345.127C588.431 327.447 584.106 315.588 576.096 304.545C566.222 290.945 557.709 274.421 549.589 276.556C541.47 278.691 545.836 300.587 552.309 315.996C558.035 329.678 586.31 343.318 590.39 354.321C589.914 376.598 589.465 404.872 589.152 431.12C586.935 417.52 588.458 416.378 579.333 395.624C573.893 383.262 551.67 368.016 549.032 376.516C546.394 385.016 550.392 400.996 558.797 412.325C565.597 421.396 580.557 421.382 584.079 427.013C584.882 428.373 587.561 433.323 589.098 436.247C588.73 468.33 588.567 496.658 588.758 506.328L590.213 506.423C590.145 503.934 590.322 487.601 590.607 465.99C594.252 454.512 618.827 447.794 626.416 435.839C634.372 423.259 640.07 408.666 636.67 398.874Z" fill="#E6E6E6"/>
<path id="Vector_9" d="M613.564 520.798H566.426C565.186 520.784 563.988 520.346 563.03 519.556C562.073 518.767 561.414 517.675 561.163 516.46L557.804 499.95H622.268L618.922 516.46C618.668 517.691 617.995 518.796 617.018 519.586C616.041 520.377 614.821 520.806 613.564 520.798Z" fill="#E6E6E6"/>
<path id="Vector_10" d="M623.574 506.342H556.417C555.638 506.347 554.885 506.063 554.302 505.546C553.719 505.029 553.349 504.314 553.262 503.54L551.902 491.3C551.809 490.478 552.041 489.651 552.55 488.998C553.058 488.345 553.802 487.917 554.622 487.805H624.906C625.322 487.801 625.734 487.88 626.119 488.036C626.504 488.192 626.855 488.423 627.15 488.714C627.446 489.006 627.681 489.354 627.842 489.737C628.003 490.12 628.087 490.531 628.089 490.946C628.096 491.069 628.096 491.191 628.089 491.314L626.729 503.554C626.644 504.328 626.274 505.042 625.691 505.558C625.107 506.074 624.352 506.353 623.574 506.342Z" fill="#F0F0F0"/>
<path id="Vector_11" d="M166.886 121.054H71.9576V225.284H166.886V121.054Z" fill="#E6E6E6"/>
<path id="Vector_12" d="M175.005 121.054H73.2224V225.284H175.005V121.054Z" fill="#F5F5F5"/>
<path id="Vector_13" d="M168.518 127.541H79.7096V218.783H168.518V127.541Z" fill="white"/>
<path id="Vector_14" d="M110.813 205.618C105.737 200.538 102.886 193.651 102.886 186.47C102.886 179.288 105.737 172.401 110.813 167.321L137.36 140.719C142.436 145.799 145.287 152.687 145.287 159.868C145.287 167.049 142.436 173.937 137.36 179.017L110.813 205.618Z" fill="#F5F5F5"/>
<path id="Vector_15" d="M137.972 280.242H73.3584V353.165H137.972V280.242Z" fill="#E6E6E6"/>
<path id="Vector_16" d="M147.315 280.242H74.936V353.165H147.315V280.242Z" fill="#F5F5F5"/>
<path id="Vector_17" d="M139.862 287.708H82.416V345.712H139.862V287.708Z" fill="white"/>
<path id="Vector_18" d="M105.921 304.927L99.3339 311.515C96.4659 314.383 96.4658 319.033 99.3339 321.901L105.921 328.488C108.789 331.356 113.439 331.356 116.307 328.488L122.895 321.901C125.763 319.033 125.763 314.383 122.895 311.515L116.307 304.927C113.439 302.059 108.789 302.059 105.921 304.927Z" fill="#F5F5F5"/>
</g>
<path id="Vector_19" d="M279.97 371.334H250.526V519.86H279.97V371.334Z" fill="#E6E6E6"/>
<path id="Vector_20" d="M250.526 371.348H123.488V519.874H250.526V371.348Z" fill="#F0F0F0"/>
<path id="Vector_21" d="M238.952 428.482H135.062V462.713H238.952V428.482Z" fill="#E6E6E6"/>
<path id="Vector_22" d="M238.952 470.356H135.062V504.587H238.952V470.356Z" fill="#E6E6E6"/>
<path id="Vector_23" d="M175.331 433.078H198.669C199.428 433.071 200.153 432.767 200.69 432.23C201.227 431.693 201.531 430.968 201.538 430.209C201.535 429.449 201.231 428.721 200.694 428.184C200.157 427.646 199.429 427.343 198.669 427.339H175.331C174.573 427.343 173.846 427.647 173.311 428.184C172.776 428.722 172.475 429.45 172.475 430.209C172.475 430.967 172.776 431.695 173.311 432.233C173.846 432.771 174.573 433.075 175.331 433.078Z" fill="#F0F0F0"/>
<path id="Vector_24" d="M238.952 386.621H135.062V420.852H238.952V386.621Z" fill="#E6E6E6"/>
<path id="Vector_25" d="M175.331 391.204H198.669C199.429 391.2 200.157 390.897 200.694 390.36C201.231 389.822 201.535 389.094 201.538 388.334C201.531 387.576 201.227 386.85 200.69 386.313C200.153 385.776 199.428 385.472 198.669 385.465H175.331C174.573 385.468 173.846 385.772 173.311 386.31C172.776 386.848 172.475 387.576 172.475 388.334C172.475 389.093 172.776 389.821 173.311 390.359C173.846 390.896 174.573 391.2 175.331 391.204Z" fill="#F0F0F0"/>
<path id="Vector_26" d="M175.331 474.953H198.669C199.431 474.949 200.161 474.644 200.699 474.104C201.237 473.563 201.538 472.832 201.538 472.07C201.535 471.311 201.231 470.584 200.693 470.049C200.155 469.514 199.428 469.214 198.669 469.214H175.331C174.956 469.214 174.585 469.287 174.238 469.431C173.892 469.575 173.577 469.785 173.312 470.05C173.047 470.315 172.836 470.63 172.693 470.977C172.549 471.323 172.475 471.695 172.475 472.07C172.473 472.446 172.546 472.82 172.688 473.169C172.831 473.518 173.041 473.835 173.306 474.103C173.571 474.37 173.887 474.583 174.234 474.729C174.582 474.875 174.954 474.951 175.331 474.953Z" fill="#F0F0F0"/>
<path id="Vector_27" d="M250.526 363.528H119.558V371.334H250.526V363.528Z" fill="#E6E6E6"/>
<path id="Vector_28" d="M284.077 363.542H250.526V371.348H284.077V363.542Z" fill="#E0E0E0"/>
</g>
<g id="freepik  Shadow  inject 637">
<path id="Vector_29" d="M348.16 607.43C479.732 607.43 586.391 599.016 586.391 588.635C586.391 578.255 479.732 569.84 348.16 569.84C216.589 569.84 109.929 578.255 109.929 588.635C109.929 599.016 216.589 607.43 348.16 607.43Z" fill="#F5F5F5"/>
</g>
<g id="freepik  Mechanisms  inject 637">
<g id="gear2">
<path id="Vector_30" d="M540.79 175.209C538.83 168.717 536.233 162.435 533.038 156.454L537.866 140.651L506.668 109.371L490.837 114.24C484.876 111.007 478.596 108.4 472.097 106.461L464.345 91.868H420.24L412.474 106.461C405.954 108.401 399.651 111.008 393.665 114.24L377.849 109.385L346.569 140.665L351.41 156.482C348.199 162.455 345.602 168.739 343.658 175.236L329.12 183.002V227.12L343.713 234.886C345.655 241.381 348.257 247.661 351.478 253.626L346.637 269.416L377.917 300.696L393.733 295.868C399.705 299.08 405.989 301.673 412.488 303.606L420.24 318.24H464.413L472.165 303.647C478.658 301.699 484.937 299.097 490.905 295.882L506.736 300.71L538.016 269.43L533.12 253.654C536.312 247.679 538.9 241.401 540.845 234.913L555.383 227.12V182.961L540.79 175.209ZM442.245 285.138C426.405 285.135 410.922 280.435 397.753 271.633C384.584 262.831 374.32 250.322 368.261 235.687C362.201 221.052 360.617 204.949 363.708 189.414C366.8 173.879 374.429 159.609 385.631 148.41C396.832 137.21 411.103 129.584 426.638 126.495C442.174 123.406 458.277 124.992 472.911 131.055C487.545 137.117 500.052 147.382 508.852 160.553C517.652 173.723 522.349 189.207 522.349 205.047C522.345 226.29 513.904 246.661 498.882 261.68C483.86 276.7 463.487 285.138 442.245 285.138Z" fill="#00A8E8"/>
<path id="Vector_31" d="M442.245 136.19C428.625 136.196 415.312 140.24 403.99 147.81C392.668 155.381 383.845 166.139 378.636 178.724C373.428 191.309 372.068 205.156 374.728 218.513C377.389 231.871 383.95 244.14 393.583 253.769C403.216 263.398 415.487 269.955 428.846 272.61C442.205 275.265 456.051 273.9 468.634 268.686C481.217 263.473 491.971 254.645 499.537 243.32C507.104 231.995 511.142 218.681 511.142 205.061C511.142 196.014 509.36 187.056 505.897 178.699C502.434 170.341 497.359 162.748 490.961 156.352C484.563 149.957 476.967 144.884 468.609 141.425C460.25 137.966 451.291 136.187 442.245 136.19ZM442.245 264.765C430.436 264.767 418.892 261.269 409.073 254.71C399.253 248.152 391.598 238.83 387.077 227.921C382.556 217.013 381.371 205.008 383.672 193.426C385.973 181.844 391.657 171.205 400.004 162.853C408.352 154.502 418.989 148.813 430.57 146.507C442.151 144.2 454.156 145.38 465.066 149.896C475.977 154.413 485.303 162.063 491.866 171.88C498.428 181.697 501.932 193.239 501.935 205.047C501.903 220.871 495.604 236.037 484.418 247.229C473.232 258.42 458.068 264.725 442.245 264.765Z" fill="#00A8E8"/>
<path id="gear-big" opacity="0.4" d="M540.79 175.209C538.83 168.717 536.233 162.435 533.038 156.454L537.866 140.651L506.668 109.371L490.837 114.24C484.876 111.007 478.596 108.4 472.097 106.461L464.345 91.868H420.24L412.474 106.461C405.954 108.401 399.651 111.008 393.665 114.24L377.849 109.385L346.569 140.665L351.41 156.482C348.199 162.455 345.602 168.739 343.658 175.236L329.12 183.002V227.12L343.713 234.886C345.655 241.381 348.257 247.661 351.478 253.626L346.637 269.416L377.917 300.696L393.733 295.868C399.705 299.08 405.989 301.673 412.488 303.606L420.24 318.24H464.413L472.165 303.647C478.658 301.699 484.937 299.097 490.905 295.882L506.736 300.71L538.016 269.43L533.12 253.654C536.312 247.679 538.9 241.401 540.845 234.913L555.383 227.12V182.961L540.79 175.209ZM442.245 285.138C426.405 285.135 410.922 280.435 397.753 271.633C384.584 262.831 374.32 250.322 368.261 235.687C362.201 221.052 360.617 204.949 363.708 189.414C366.8 173.879 374.429 159.609 385.631 148.41C396.832 137.21 411.103 129.584 426.638 126.495C442.174 123.406 458.277 124.992 472.911 131.055C487.545 137.117 500.052 147.382 508.852 160.553C517.652 173.723 522.349 189.207 522.349 205.047C522.345 226.29 513.904 246.661 498.882 261.68C483.86 276.7 463.487 285.138 442.245 285.138Z" fill="white"/>
<path id="Vector_32" opacity="0.4" d="M442.245 136.19C428.625 136.196 415.312 140.24 403.99 147.81C392.668 155.381 383.845 166.139 378.636 178.724C373.428 191.309 372.068 205.156 374.728 218.513C377.389 231.871 383.95 244.14 393.583 253.769C403.216 263.398 415.487 269.955 428.846 272.61C442.205 275.265 456.051 273.9 468.634 268.686C481.217 263.473 491.971 254.645 499.537 243.32C507.104 231.995 511.142 218.681 511.142 205.061C511.142 196.014 509.36 187.056 505.897 178.699C502.434 170.341 497.359 162.748 490.961 156.352C484.563 149.957 476.967 144.884 468.609 141.425C460.25 137.966 451.291 136.187 442.245 136.19ZM442.245 264.765C430.436 264.767 418.892 261.269 409.073 254.71C399.253 248.152 391.598 238.83 387.077 227.921C382.556 217.013 381.371 205.008 383.672 193.426C385.973 181.844 391.657 171.205 400.004 162.853C408.352 154.502 418.989 148.813 430.57 146.507C442.151 144.2 454.156 145.38 465.066 149.896C475.977 154.413 485.303 162.063 491.866 171.88C498.428 181.697 501.932 193.239 501.935 205.047C501.903 220.871 495.604 236.037 484.418 247.229C473.232 258.42 458.068 264.725 442.245 264.765Z" fill="white"/>
</g>
<g id="gear1">
<path id="Vector_33" d="M262.915 262.643C261.89 259.202 260.523 255.871 258.835 252.702L261.406 244.31L244.8 227.732L236.409 230.302C233.239 228.614 229.909 227.247 226.467 226.222L222.387 218.525H198.886L194.806 226.222C191.365 227.247 188.034 228.614 184.865 230.302L176.474 227.732L159.909 244.31L162.466 252.702C160.782 255.873 159.416 259.203 158.386 262.643L150.634 266.723V290.17L158.386 294.25C159.41 297.692 160.777 301.022 162.466 304.191L159.909 312.582L176.474 329.161L184.865 326.59C188.037 328.273 191.367 329.64 194.806 330.67L198.886 338.354H222.333L226.413 330.67C229.852 329.64 233.182 328.273 236.354 326.59L244.746 329.161L261.324 312.582L258.754 304.191C260.442 301.022 261.809 297.691 262.834 294.25L270.572 290.17V266.764L262.915 262.643ZM210.61 311.78C204.022 311.78 197.583 309.827 192.106 306.167C186.628 302.507 182.359 297.305 179.838 291.219C177.318 285.133 176.658 278.437 177.943 271.976C179.228 265.515 182.4 259.58 187.058 254.922C191.716 250.264 197.651 247.092 204.112 245.807C210.573 244.522 217.269 245.182 223.355 247.703C229.441 250.223 234.643 254.492 238.303 259.97C241.963 265.447 243.916 271.886 243.916 278.474C243.912 287.306 240.402 295.775 234.157 302.021C227.911 308.266 219.442 311.776 210.61 311.78Z" fill="#263238"/>
<path id="Vector_34" d="M262.915 262.643C261.89 259.202 260.523 255.871 258.835 252.702L261.406 244.31L244.8 227.732L236.409 230.302C233.239 228.614 229.909 227.247 226.467 226.222L222.387 218.525H198.886L194.806 226.222C191.365 227.247 188.034 228.614 184.865 230.302L176.474 227.732L159.909 244.31L162.466 252.702C160.782 255.873 159.416 259.203 158.386 262.643L150.634 266.723V290.17L158.386 294.25C159.41 297.692 160.777 301.022 162.466 304.191L159.909 312.582L176.474 329.161L184.865 326.59C188.037 328.273 191.367 329.64 194.806 330.67L198.886 338.354H222.333L226.413 330.67C229.852 329.64 233.182 328.273 236.354 326.59L244.746 329.161L261.324 312.582L258.754 304.191C260.442 301.022 261.809 297.691 262.834 294.25L270.572 290.17V266.764L262.915 262.643ZM210.61 311.78C204.022 311.78 197.583 309.827 192.106 306.167C186.628 302.507 182.359 297.305 179.838 291.219C177.318 285.133 176.658 278.437 177.943 271.976C179.228 265.515 182.4 259.58 187.058 254.922C191.716 250.264 197.651 247.092 204.112 245.807C210.573 244.522 217.269 245.182 223.355 247.703C229.441 250.223 234.643 254.492 238.303 259.97C241.963 265.447 243.916 271.886 243.916 278.474C243.912 287.306 240.402 295.775 234.157 302.021C227.911 308.266 219.442 311.776 210.61 311.78Z" fill="#00A8E8"/>
<path id="Vector_35" d="M210.61 267.444C208.425 267.444 206.29 268.092 204.474 269.305C202.658 270.519 201.243 272.243 200.407 274.261C199.571 276.279 199.353 278.499 199.779 280.642C200.205 282.784 201.256 284.752 202.801 286.296C204.345 287.84 206.313 288.892 208.455 289.318C210.597 289.744 212.818 289.526 214.836 288.69C216.854 287.854 218.578 286.439 219.792 284.622C221.005 282.806 221.653 280.671 221.653 278.487C221.653 275.558 220.489 272.749 218.418 270.678C216.347 268.607 213.538 267.444 210.61 267.444Z" fill="#263238"/>
<path id="gear-little" opacity="0.4" d="M262.915 262.643C261.89 259.202 260.523 255.871 258.835 252.702L261.406 244.31L244.8 227.732L236.409 230.302C233.239 228.614 229.909 227.247 226.467 226.222L222.387 218.525H198.886L194.806 226.222C191.365 227.247 188.034 228.614 184.865 230.302L176.474 227.732L159.909 244.31L162.466 252.702C160.782 255.873 159.416 259.203 158.386 262.643L150.634 266.723V290.17L158.386 294.25C159.41 297.692 160.777 301.022 162.466 304.191L159.909 312.582L176.474 329.161L184.865 326.59C188.037 328.273 191.367 329.64 194.806 330.67L198.886 338.354H222.333L226.413 330.67C229.852 329.64 233.182 328.273 236.354 326.59L244.746 329.161L261.324 312.582L258.754 304.191C260.442 301.022 261.809 297.691 262.834 294.25L270.572 290.17V266.764L262.915 262.643ZM210.61 311.78C204.022 311.78 197.583 309.827 192.106 306.167C186.628 302.507 182.359 297.305 179.838 291.219C177.318 285.133 176.658 278.437 177.943 271.976C179.228 265.515 182.4 259.58 187.058 254.922C191.716 250.264 197.651 247.092 204.112 245.807C210.573 244.522 217.269 245.182 223.355 247.703C229.441 250.223 234.643 254.492 238.303 259.97C241.963 265.447 243.916 271.886 243.916 278.474C243.912 287.306 240.402 295.775 234.157 302.021C227.911 308.266 219.442 311.776 210.61 311.78Z" fill="white"/>
</g>
<path id="Vector_36" opacity="0.2" d="M210.61 267.444C208.425 267.444 206.29 268.092 204.474 269.305C202.658 270.519 201.243 272.243 200.407 274.261C199.571 276.279 199.353 278.499 199.779 280.642C200.205 282.784 201.256 284.752 202.801 286.296C204.345 287.84 206.313 288.892 208.455 289.318C210.597 289.744 212.818 289.526 214.836 288.69C216.854 287.854 218.578 286.439 219.792 284.622C221.005 282.806 221.653 280.671 221.653 278.487C221.653 275.558 220.489 272.749 218.418 270.678C216.347 268.607 213.538 267.444 210.61 267.444Z" fill="white"/>
<path id="Vector_37" d="M284.24 241.386L275.264 237.687L274.938 234.314C274.098 233.606 273.316 232.833 272.598 232.002L269.253 231.662L265.54 222.7L267.702 220.13C267.607 219.03 267.607 217.924 267.702 216.825L265.54 214.268L269.28 205.36L272.626 205.034C273.353 204.177 274.144 203.377 274.992 202.64L275.318 199.281L284.294 195.582L286.851 197.73C287.951 197.649 289.056 197.649 290.156 197.73L292.713 195.582L301.689 199.281L302.002 202.64C302.835 203.36 303.616 204.137 304.341 204.966L307.686 205.292L311.386 214.254L309.237 216.811C309.332 217.911 309.332 219.016 309.237 220.116L311.386 222.686L307.686 231.649L304.341 231.989C303.623 232.824 302.841 233.602 302.002 234.314L301.689 237.674L292.713 241.373L290.156 239.224C289.06 239.306 287.96 239.306 286.865 239.224L284.24 241.386ZM290.741 237.306L293.066 239.224L299.866 236.409L300.138 233.403L300.465 233.158C301.418 232.386 302.297 231.525 303.09 230.588L303.334 230.275L306.34 229.99L309.155 223.19L307.36 220.796V220.402C307.482 219.167 307.482 217.923 307.36 216.689V216.24L309.278 213.901L306.462 207.101L303.47 206.829L303.212 206.502C302.412 205.584 301.523 204.746 300.56 204L300.234 203.742L299.962 200.75L293.162 197.921L290.795 199.92H290.401C289.167 199.784 287.922 199.784 286.688 199.92H286.28L283.954 197.989L277.154 200.818L276.869 203.81L276.57 204.068C275.605 204.828 274.721 205.685 273.931 206.625L273.673 206.951L270.667 207.223L267.825 214.023L269.756 216.349V216.743C269.62 217.977 269.62 219.222 269.756 220.456V220.864L267.825 223.04L270.654 229.84L273.646 230.126L273.904 230.425C274.684 231.393 275.564 232.278 276.529 233.063L276.842 233.308L277.127 236.327L283.927 239.142L286.266 237.225H286.661C287.895 237.347 289.139 237.347 290.374 237.225L290.741 237.306Z" fill="#263238"/>
<path id="Vector_38" d="M292.522 228.099C290.619 228.89 288.524 229.098 286.502 228.698C284.48 228.298 282.622 227.307 281.164 225.85C279.705 224.393 278.712 222.537 278.309 220.515C277.906 218.494 278.112 216.398 278.9 214.494C279.688 212.59 281.024 210.962 282.738 209.817C284.452 208.672 286.467 208.061 288.528 208.061C290.589 208.062 292.604 208.674 294.317 209.82C296.031 210.966 297.365 212.594 298.153 214.499C298.677 215.761 298.948 217.114 298.949 218.48C298.95 219.846 298.683 221.2 298.161 222.463C297.64 223.725 296.874 224.873 295.909 225.84C294.944 226.808 293.798 227.575 292.536 228.099H292.522Z" fill="#263238"/>
<path id="Vector_39" d="M217.6 220.13C217.43 220.13 217.268 220.062 217.148 219.942C217.028 219.823 216.961 219.66 216.961 219.49V216.24C216.961 216.07 217.028 215.908 217.148 215.788C217.268 215.668 217.43 215.601 217.6 215.601C217.769 215.601 217.932 215.668 218.052 215.788C218.172 215.908 218.239 216.07 218.239 216.24V219.436C218.247 219.524 218.236 219.613 218.207 219.697C218.178 219.781 218.132 219.858 218.072 219.924C218.012 219.989 217.939 220.041 217.858 220.076C217.776 220.112 217.689 220.13 217.6 220.13Z" fill="#00A8E8"/>
<path id="Vector_40" d="M217.6 210.514C217.43 210.514 217.268 210.447 217.148 210.327C217.028 210.207 216.961 210.045 216.961 209.875V203.456C216.961 203.287 217.028 203.124 217.148 203.004C217.268 202.884 217.43 202.817 217.6 202.817C217.769 202.817 217.932 202.884 218.052 203.004C218.172 203.124 218.239 203.287 218.239 203.456V209.875C218.239 210.045 218.172 210.207 218.052 210.327C217.932 210.447 217.769 210.514 217.6 210.514ZM217.6 197.676C217.43 197.676 217.268 197.609 217.148 197.489C217.028 197.369 216.961 197.206 216.961 197.037V190.618C216.961 190.448 217.028 190.286 217.148 190.166C217.268 190.046 217.43 189.978 217.6 189.978C217.769 189.978 217.932 190.046 218.052 190.166C218.172 190.286 218.239 190.448 218.239 190.618V197.037C218.239 197.206 218.172 197.369 218.052 197.489C217.932 197.609 217.769 197.676 217.6 197.676ZM217.6 184.851C217.429 184.848 217.267 184.777 217.147 184.655C217.028 184.533 216.961 184.369 216.961 184.198V177.793C216.961 177.623 217.028 177.461 217.148 177.341C217.268 177.221 217.43 177.154 217.6 177.154C217.769 177.154 217.932 177.221 218.052 177.341C218.172 177.461 218.239 177.623 218.239 177.793V184.198C218.239 184.369 218.172 184.533 218.053 184.655C217.933 184.777 217.771 184.848 217.6 184.851ZM217.6 171.972C217.518 171.978 217.436 171.966 217.358 171.939C217.281 171.911 217.21 171.868 217.15 171.812C217.09 171.756 217.042 171.688 217.01 171.612C216.977 171.537 216.961 171.456 216.961 171.374V171.278C216.96 169.094 217.323 166.925 218.035 164.859C218.094 164.701 218.211 164.571 218.364 164.497C218.516 164.424 218.69 164.412 218.851 164.465C218.932 164.491 219.006 164.533 219.07 164.588C219.134 164.644 219.186 164.712 219.223 164.788C219.26 164.865 219.281 164.948 219.285 165.032C219.289 165.117 219.275 165.201 219.246 165.281C218.577 167.21 218.237 169.237 218.239 171.278C218.24 171.453 218.174 171.622 218.056 171.751C217.937 171.879 217.774 171.958 217.6 171.972ZM221.68 160.113C221.537 160.115 221.397 160.067 221.286 159.977C221.219 159.925 221.164 159.861 221.123 159.788C221.082 159.714 221.055 159.634 221.045 159.551C221.035 159.467 221.041 159.383 221.064 159.302C221.087 159.221 221.125 159.145 221.177 159.079C222.559 157.348 224.223 155.863 226.1 154.686C226.171 154.642 226.251 154.612 226.334 154.598C226.417 154.584 226.502 154.586 226.584 154.605C226.666 154.624 226.744 154.659 226.812 154.708C226.881 154.757 226.939 154.819 226.984 154.89C227.029 154.962 227.059 155.041 227.073 155.124C227.087 155.208 227.084 155.293 227.065 155.375C227.046 155.457 227.011 155.534 226.962 155.603C226.913 155.671 226.851 155.73 226.78 155.774C225.027 156.863 223.472 158.243 222.183 159.854C222.087 159.985 221.947 160.076 221.789 160.113H221.68ZM232.356 153.449C232.197 153.45 232.044 153.392 231.926 153.287C231.807 153.181 231.732 153.036 231.715 152.878C231.698 152.72 231.741 152.562 231.834 152.434C231.927 152.306 232.065 152.217 232.22 152.184C233.613 151.874 235.036 151.718 236.463 151.722H238.734C238.818 151.722 238.901 151.738 238.979 151.77C239.056 151.802 239.127 151.849 239.186 151.909C239.246 151.968 239.293 152.039 239.325 152.116C239.357 152.194 239.373 152.277 239.373 152.361C239.373 152.445 239.357 152.528 239.325 152.605C239.293 152.683 239.246 152.753 239.186 152.813C239.127 152.872 239.056 152.919 238.979 152.951C238.901 152.983 238.818 153 238.734 153H236.64C235.304 153.001 233.973 153.147 232.669 153.435L232.356 153.449ZM341.414 153H335.104C334.934 153 334.772 152.933 334.652 152.813C334.532 152.693 334.465 152.53 334.465 152.361C334.465 152.191 334.532 152.029 334.652 151.909C334.772 151.789 334.934 151.722 335.104 151.722H341.523C341.607 151.722 341.69 151.738 341.768 151.77C341.845 151.802 341.916 151.849 341.975 151.909C342.034 151.968 342.082 152.039 342.114 152.116C342.146 152.194 342.162 152.277 342.162 152.361C342.162 152.445 342.146 152.528 342.114 152.605C342.082 152.683 342.034 152.753 341.975 152.813C341.916 152.872 341.845 152.919 341.768 152.951C341.69 152.983 341.607 153 341.523 153H341.414ZM328.576 153H322.32C322.236 153 322.153 152.983 322.075 152.951C321.998 152.919 321.927 152.872 321.868 152.813C321.809 152.753 321.761 152.683 321.729 152.605C321.697 152.528 321.681 152.445 321.681 152.361C321.681 152.277 321.697 152.194 321.729 152.116C321.761 152.039 321.809 151.968 321.868 151.909C321.927 151.849 321.998 151.802 322.075 151.77C322.153 151.738 322.236 151.722 322.32 151.722H328.726C328.809 151.722 328.893 151.738 328.97 151.77C329.048 151.802 329.118 151.849 329.177 151.909C329.237 151.968 329.284 152.039 329.316 152.116C329.348 152.194 329.365 152.277 329.365 152.361C329.365 152.445 329.348 152.528 329.316 152.605C329.284 152.683 329.237 152.753 329.177 152.813C329.118 152.872 329.048 152.919 328.97 152.951C328.893 152.983 328.809 153 328.726 153H328.576ZM315.751 153H309.332C309.162 153 309 152.933 308.88 152.813C308.76 152.693 308.693 152.53 308.693 152.361C308.693 152.191 308.76 152.029 308.88 151.909C309 151.789 309.162 151.722 309.332 151.722H315.751C315.835 151.722 315.918 151.738 315.996 151.77C316.073 151.802 316.144 151.849 316.203 151.909C316.262 151.968 316.31 152.039 316.342 152.116C316.374 152.194 316.39 152.277 316.39 152.361C316.39 152.445 316.374 152.528 316.342 152.605C316.31 152.683 316.262 152.753 316.203 152.813C316.144 152.872 316.073 152.919 315.996 152.951C315.918 152.983 315.835 153 315.751 153ZM302.913 153H296.493C296.324 153 296.161 152.933 296.042 152.813C295.922 152.693 295.854 152.53 295.854 152.361C295.854 152.191 295.922 152.029 296.042 151.909C296.161 151.789 296.324 151.722 296.493 151.722H302.913C302.997 151.722 303.08 151.738 303.157 151.77C303.235 151.802 303.305 151.849 303.365 151.909C303.424 151.968 303.471 152.039 303.503 152.116C303.535 152.194 303.552 152.277 303.552 152.361C303.552 152.445 303.535 152.528 303.503 152.605C303.471 152.683 303.424 152.753 303.365 152.813C303.305 152.872 303.235 152.919 303.157 152.951C303.08 152.983 302.997 153 302.913 153ZM290.074 153H283.655C283.486 153 283.323 152.933 283.203 152.813C283.083 152.693 283.016 152.53 283.016 152.361C283.016 152.191 283.083 152.029 283.203 151.909C283.323 151.789 283.486 151.722 283.655 151.722H290.074C290.158 151.722 290.241 151.738 290.319 151.77C290.396 151.802 290.467 151.849 290.526 151.909C290.586 151.968 290.633 152.039 290.665 152.116C290.697 152.194 290.713 152.277 290.713 152.361C290.713 152.445 290.697 152.528 290.665 152.605C290.633 152.683 290.586 152.753 290.526 152.813C290.467 152.872 290.396 152.919 290.319 152.951C290.241 152.983 290.158 153 290.074 153ZM277.236 153H270.83C270.746 153 270.663 152.983 270.586 152.951C270.508 152.919 270.438 152.872 270.378 152.813C270.319 152.753 270.272 152.683 270.24 152.605C270.208 152.528 270.191 152.445 270.191 152.361C270.191 152.277 270.208 152.194 270.24 152.116C270.272 152.039 270.319 151.968 270.378 151.909C270.438 151.849 270.508 151.802 270.586 151.77C270.663 151.738 270.746 151.722 270.83 151.722H277.236C277.32 151.722 277.403 151.738 277.481 151.77C277.558 151.802 277.629 151.849 277.688 151.909C277.747 151.968 277.794 152.039 277.826 152.116C277.859 152.194 277.875 152.277 277.875 152.361C277.875 152.445 277.859 152.528 277.826 152.605C277.794 152.683 277.747 152.753 277.688 152.813C277.629 152.872 277.558 152.919 277.481 152.951C277.403 152.983 277.32 153 277.236 153ZM264.411 153H257.992C257.822 153 257.66 152.933 257.54 152.813C257.42 152.693 257.353 152.53 257.353 152.361C257.353 152.191 257.42 152.029 257.54 151.909C257.66 151.789 257.822 151.722 257.992 151.722H264.411C264.495 151.722 264.578 151.738 264.656 151.77C264.733 151.802 264.804 151.849 264.863 151.909C264.922 151.968 264.97 152.039 265.002 152.116C265.034 152.194 265.05 152.277 265.05 152.361C265.05 152.445 265.034 152.528 265.002 152.605C264.97 152.683 264.922 152.753 264.863 152.813C264.804 152.872 264.733 152.919 264.656 152.951C264.578 152.983 264.495 153 264.411 153ZM251.573 153H245.153C244.984 153 244.821 152.933 244.702 152.813C244.582 152.693 244.514 152.53 244.514 152.361C244.514 152.191 244.582 152.029 244.702 151.909C244.821 151.789 244.984 151.722 245.153 151.722H251.573C251.657 151.722 251.74 151.738 251.817 151.77C251.895 151.802 251.965 151.849 252.025 151.909C252.084 151.968 252.131 152.039 252.163 152.116C252.195 152.194 252.212 152.277 252.212 152.361C252.212 152.445 252.195 152.528 252.163 152.605C252.131 152.683 252.084 152.753 252.025 152.813C251.965 152.872 251.895 152.919 251.817 152.951C251.74 152.983 251.657 153 251.573 153Z" fill="#00A8E8"/>
<path id="Vector_41" d="M351.166 153H347.956C347.786 153 347.624 152.933 347.504 152.813C347.384 152.693 347.317 152.53 347.317 152.361C347.317 152.191 347.384 152.029 347.504 151.909C347.624 151.789 347.786 151.722 347.956 151.722H351.166C351.335 151.722 351.498 151.789 351.618 151.909C351.737 152.029 351.805 152.191 351.805 152.361C351.805 152.53 351.737 152.693 351.618 152.813C351.498 152.933 351.335 153 351.166 153Z" fill="#00A8E8"/>
</g>
<g id="character">
<path id="Vector_42" d="M217.274 587.207H223.979L223.979 377.672H217.274L217.274 587.207Z" fill="#263238"/>
<path id="Vector_43" d="M493.503 471.648H382.772V456.294H493.503C494.841 456.294 496.125 456.825 497.071 457.771C498.017 458.718 498.549 460.001 498.549 461.339V466.602C498.549 467.265 498.418 467.921 498.165 468.533C497.911 469.145 497.54 469.702 497.071 470.17C496.602 470.639 496.046 471.01 495.434 471.264C494.822 471.518 494.166 471.648 493.503 471.648Z" fill="#00A8E8"/>
<path id="Vector_44" d="M489.246 588.363L481.222 461.543" stroke="#00A8E8" stroke-width="2.8255" stroke-linecap="round" stroke-linejoin="round"/>
<path id="Vector_45" d="M458.524 594.646L450.5 467.826" stroke="#00A8E8" stroke-width="2.8255" stroke-linecap="round" stroke-linejoin="round"/>
<path id="Vector_46" d="M377.998 588.363L386.022 461.543" stroke="#00A8E8" stroke-width="2.8255" stroke-linecap="round" stroke-linejoin="round"/>
<path id="Vector_47" d="M408.721 594.646L416.745 467.826" stroke="#00A8E8" stroke-width="2.8255" stroke-linecap="round" stroke-linejoin="round"/>
<path id="Vector_48" d="M503.336 461.543H392.605V446.189H503.336C504.674 446.189 505.958 446.72 506.904 447.667C507.85 448.613 508.382 449.896 508.382 451.234V456.498C508.382 457.836 507.85 459.119 506.904 460.065C505.958 461.012 504.674 461.543 503.336 461.543Z" fill="#00A8E8"/>
<path id="Vector_49" opacity="0.2" d="M503.336 461.543H392.605V446.189H503.336C504.674 446.189 505.958 446.72 506.904 447.667C507.85 448.613 508.382 449.896 508.382 451.234V456.498C508.382 457.836 507.85 459.119 506.904 460.065C505.958 461.012 504.674 461.543 503.336 461.543Z" fill="black"/>
<path id="Vector_50" d="M391.816 592.212H398.521V382.677H391.816V592.212Z" fill="#263238"/>
<path id="Vector_51" d="M414.664 398.616C414.664 398.616 338.028 401.499 325.298 432.262C325.298 432.262 327.066 523.886 337.321 553.955L359.258 551.466L355.749 462.4L435.023 398.643L414.664 398.616Z" fill="#263238"/>
<path id="Vector_52" opacity="0.2" d="M414.664 398.616C414.664 398.616 338.028 401.499 325.298 432.262C325.298 432.262 327.066 523.886 337.321 553.955L359.258 551.466L355.749 462.4L435.023 398.643L414.664 398.616Z" fill="black"/>
<path id="Vector_53" d="M355.626 574.396H341.931L341.741 565.27L341.605 558.117L354.987 558.933L355.246 565.27L355.626 574.396Z" fill="#FFAFA7"/>
<path id="Vector_54" opacity="0.2" d="M355.246 565.27H341.741L341.605 558.117L354.987 558.933L355.246 565.27Z" fill="black"/>
<path id="Vector_55" d="M361.746 561.027L332.425 561.911L327.08 551.031L360.93 550.718L361.746 561.027Z" fill="#00A8E8"/>
<path id="Vector_56" d="M338.422 576.463C338.422 576.463 339.13 568.426 336.328 569.541C333.526 570.656 336.654 574.763 338.422 576.463Z" stroke="#00A8E8" stroke-width="0.941833" stroke-miterlimit="10"/>
<path id="Vector_57" d="M338.423 576.463C338.423 576.463 332.398 572.247 330.861 574.396C329.324 576.545 338.423 576.463 338.423 576.463Z" stroke="#00A8E8" stroke-width="0.941833" stroke-miterlimit="10"/>
<path id="Vector_58" d="M343.196 572.56L354.076 572.669C354.844 572.687 355.577 572.989 356.135 573.516C356.693 574.044 357.035 574.759 357.095 575.525L357.857 585.14C357.893 585.557 357.841 585.977 357.705 586.372C357.568 586.768 357.349 587.13 357.063 587.436C356.777 587.741 356.43 587.983 356.044 588.145C355.658 588.307 355.242 588.386 354.824 588.377C348.935 588.2 336.818 587.887 332.52 588.01C326.767 588.173 318.594 588.268 317.424 586.078C317.091 585.491 316.978 584.805 317.106 584.142C317.233 583.479 317.591 582.883 318.118 582.461C318.118 582.461 333.798 581.006 341.006 573.553C341.286 573.249 341.625 573.005 342.001 572.835C342.377 572.664 342.783 572.571 343.196 572.56Z" fill="#263238"/>
<path id="Vector_59" d="M483.426 398.616C483.426 398.616 484.881 416.473 484.337 430.277C483.711 446.189 449.453 460.197 399.582 452.037C399.582 452.037 395.692 478.924 381.902 503.717C368.111 528.51 346.542 565.27 346.542 565.27L325.326 551.466C325.326 551.466 353.26 473.946 358.578 452.431C363.895 430.916 366.003 420.594 381.208 413.875C396.413 407.157 429.665 398.616 429.665 398.616H483.426Z" fill="#263238"/>
<path id="Vector_60" d="M338.422 561.218L335.906 565.08L330.371 573.607L319.75 567.419L325.312 558.77L327.474 555.424L338.422 561.218Z" fill="#FFAFA7"/>
<path id="Vector_61" opacity="0.2" d="M338.422 561.218L335.906 565.08L325.312 558.77L327.474 555.424L338.422 561.218Z" fill="black"/>
<path id="Vector_62" d="M352.063 558.117L324.251 541.47L319.75 552.582L346.147 567.827L352.063 558.117Z" fill="#00A8E8"/>
<path id="Vector_63" d="M312.474 567.827C312.474 567.827 314.5 560.864 312.229 560.728C309.958 560.592 312.474 567.827 312.474 567.827Z" stroke="#00A8E8" stroke-width="0.941833" stroke-miterlimit="10"/>
<path id="Vector_64" d="M311.943 567.569C311.943 567.569 308.802 560.007 306.272 561.694C303.742 563.38 311.943 567.569 311.943 567.569Z" stroke="#00A8E8" stroke-width="0.941833" stroke-miterlimit="10"/>
<path id="Vector_65" d="M321.123 566.658L330.398 572.098C331.05 572.48 331.533 573.096 331.747 573.821C331.962 574.546 331.893 575.325 331.554 576.001L327.352 584.528C327.166 584.901 326.905 585.231 326.585 585.497C326.265 585.764 325.893 585.961 325.493 586.076C325.092 586.191 324.673 586.221 324.26 586.166C323.847 586.11 323.451 585.969 323.095 585.752C318.104 582.678 307.809 576.382 304.055 574.355C298.996 571.635 291.91 567.664 292.006 565.23C292.025 564.562 292.28 563.922 292.725 563.424C293.171 562.927 293.778 562.602 294.44 562.51C294.44 562.51 308.693 569.065 318.689 566.345C319.095 566.232 319.519 566.202 319.937 566.256C320.356 566.31 320.759 566.446 321.123 566.658Z" fill="#263238"/>
<path id="Vector_66" d="M397.338 320.579C397.338 320.579 394.482 351.778 395.624 359.802C395.624 359.802 365.813 364.167 350.744 362.1L340.653 359.57L328.032 362.658L331.473 372.654H341.564C341.564 372.654 348.908 374.721 352.118 372.654C352.118 372.654 377.346 377.699 392.251 376.094C407.157 374.49 411.781 368.818 412.447 357.517C413.073 346.637 420.24 322.402 414.514 316.894L397.338 320.579Z" fill="#FFAFA7"/>
<path id="Vector_67" d="M499.718 324.088C499.718 324.088 488.281 295.038 477.156 288.483C466.031 281.928 414.514 294.467 414.514 294.467C414.514 294.467 392.414 301.58 391.15 336.11L411.454 344.719L414.664 398.616H483.426L483.058 328.807L499.718 324.088Z" fill="#00A8E8"/>
<path id="Vector_68" d="M415.453 237.538C415.453 237.538 408.653 236.681 406.803 231.581C404.954 226.481 412.053 229.051 411.454 219.83C410.856 210.61 421.45 208.406 429.134 212.459C436.818 216.512 449.018 212.092 453.614 217.627C458.211 223.162 456.198 228.317 456.198 228.317C456.198 228.317 469.418 243.277 452.662 253.49C435.907 263.704 415.453 237.538 415.453 237.538Z" fill="#263238"/>
<path id="Vector_69" d="M455.437 287.246C448.093 298.438 441.483 299.594 432.63 299.581C422.688 299.581 426.02 292.522 426.02 292.522C430.182 290.442 433.214 288.211 433.69 283.084C433.787 282.09 433.81 281.09 433.758 280.092C433.661 277.784 433.264 275.498 432.575 273.292C418.499 274.57 413.535 267.702 411.781 254.742C410.802 246.77 412.252 238.688 415.942 231.554C424.102 241.155 439.457 233.634 439.457 233.634C435.146 246.106 445.699 250.58 445.699 250.58C449.779 248.023 453.043 250.254 452.73 255.218C452.67 256.602 452.195 257.937 451.369 259.05C450.542 260.163 449.401 261.002 448.093 261.46C447.29 283.56 455.437 287.246 455.437 287.246Z" fill="#FFAFA7"/>
<path id="Vector_70" d="M419.818 259.842C419.708 259.842 419.601 259.8 419.52 259.724C419.439 259.648 419.39 259.544 419.383 259.434C419.38 259.376 419.387 259.319 419.406 259.265C419.424 259.211 419.453 259.161 419.491 259.118C419.529 259.075 419.575 259.04 419.627 259.015C419.678 258.989 419.734 258.975 419.791 258.971C424.714 258.713 426.591 256.346 426.659 256.319C426.694 256.275 426.737 256.238 426.786 256.211C426.835 256.183 426.888 256.166 426.944 256.16C427 256.153 427.056 256.158 427.11 256.174C427.164 256.19 427.214 256.216 427.258 256.251C427.303 256.286 427.342 256.329 427.371 256.379C427.399 256.429 427.418 256.483 427.426 256.54C427.433 256.597 427.43 256.655 427.415 256.71C427.4 256.766 427.374 256.818 427.339 256.863C427.258 256.972 425.19 259.583 419.846 259.842H419.818Z" fill="#263238"/>
<path id="Vector_71" d="M419.819 254.483L419.016 246.228L415.453 253.735C416.052 254.229 416.771 254.558 417.536 254.689C418.302 254.82 419.089 254.749 419.819 254.483Z" fill="#DD837A"/>
<path id="Vector_72" d="M425.313 246.228C425.313 247.262 425.789 248.105 426.387 248.105C426.986 248.105 427.462 247.262 427.462 246.228C427.462 245.194 426.986 244.351 426.387 244.351C425.789 244.351 425.313 245.194 425.313 246.228Z" fill="#263238"/>
<path id="Vector_73" d="M414.378 248.105C414.972 248.105 415.453 247.265 415.453 246.228C415.453 245.191 414.972 244.351 414.378 244.351C413.785 244.351 413.304 245.191 413.304 246.228C413.304 247.265 413.785 248.105 414.378 248.105Z" fill="#263238"/>
<path id="Vector_74" d="M432.48 242.08C432.387 242.082 432.294 242.061 432.211 242.018C432.128 241.976 432.057 241.913 432.004 241.835C431.936 241.726 430.154 239.333 426.02 240.094C425.945 240.11 425.867 240.111 425.792 240.096C425.717 240.081 425.645 240.051 425.582 240.008C425.518 239.965 425.464 239.909 425.423 239.844C425.381 239.78 425.353 239.708 425.34 239.632C425.316 239.481 425.35 239.326 425.436 239.2C425.522 239.074 425.653 238.985 425.802 238.952C430.698 238.054 432.861 241.033 432.956 241.169C433.015 241.256 433.049 241.358 433.055 241.463C433.061 241.568 433.038 241.673 432.989 241.766C432.941 241.859 432.867 241.938 432.778 241.993C432.688 242.048 432.585 242.078 432.48 242.08Z" fill="#263238"/>
<path id="Vector_75" d="M412.556 241.318C412.461 241.317 412.368 241.293 412.284 241.25C412.217 241.216 412.157 241.168 412.108 241.111C412.059 241.053 412.022 240.986 412 240.914C411.977 240.842 411.969 240.766 411.975 240.691C411.982 240.615 412.004 240.542 412.039 240.475C412.498 239.711 413.173 239.1 413.979 238.72C414.786 238.34 415.687 238.208 416.568 238.34C416.643 238.35 416.716 238.375 416.782 238.413C416.847 238.452 416.904 238.503 416.95 238.564C416.996 238.624 417.029 238.694 417.047 238.767C417.066 238.841 417.069 238.918 417.058 238.993C417.049 239.068 417.026 239.14 416.989 239.205C416.952 239.271 416.902 239.328 416.842 239.374C416.783 239.42 416.714 239.453 416.642 239.472C416.569 239.49 416.493 239.494 416.418 239.482C415.773 239.385 415.114 239.478 414.52 239.748C413.926 240.019 413.423 240.455 413.073 241.006C413.021 241.098 412.946 241.175 412.856 241.23C412.765 241.285 412.662 241.315 412.556 241.318Z" fill="#263238"/>
<path id="Vector_76" opacity="0.2" d="M437.24 272C436.469 274.832 435.297 277.538 433.758 280.038C433.661 277.729 433.264 275.443 432.575 273.238L437.24 272Z" fill="black"/>
<path id="Vector_77" opacity="0.2" d="M411.454 344.719V336.11L407.973 343.25L411.454 344.719Z" fill="black"/>
<path id="Vector_78" opacity="0.2" d="M468.207 333.227L465.555 317.737L464.807 334.601L468.207 333.227Z" fill="black"/>
<path id="Vector_79" d="M487.179 365.731C487.016 377.06 481.916 382.704 466.997 384.309C452.078 385.914 426.863 380.868 426.863 380.868C423.654 382.935 416.31 380.868 416.31 380.868H406.218L402.791 370.872L415.398 367.798L425.49 370.314C440.626 372.382 470.438 368.03 470.438 368.03C469.581 362.018 468.615 342.394 468.207 333.227L485.996 327.964C487.75 340 487.329 355.966 487.179 365.731Z" fill="#FFAFA7"/>
<path id="Vector_80" d="M224.087 306.571L236.123 367.921C236.39 369.251 237.109 370.447 238.157 371.307C239.206 372.167 240.52 372.638 241.876 372.64H343.781C344.636 372.64 345.481 372.452 346.256 372.089C347.03 371.727 347.716 371.199 348.265 370.543C348.813 369.887 349.211 369.118 349.43 368.291C349.65 367.465 349.685 366.6 349.534 365.758L338.654 304.409C338.414 303.058 337.706 301.835 336.654 300.954C335.602 300.074 334.273 299.592 332.901 299.594H229.84C228.974 299.59 228.119 299.778 227.335 300.145C226.551 300.512 225.858 301.049 225.307 301.717C224.757 302.385 224.361 303.167 224.15 304.007C223.939 304.846 223.918 305.722 224.087 306.571Z" fill="#00A8E8"/>
<path id="Vector_81" opacity="0.2" d="M334.383 299.594L347.113 372.64C347.56 372.641 348.001 372.544 348.406 372.356C348.811 372.167 349.17 371.892 349.457 371.549C349.744 371.206 349.952 370.805 350.066 370.373C350.18 369.941 350.198 369.489 350.118 369.05L338.191 302.097C338.066 301.392 337.696 300.754 337.146 300.296C336.596 299.838 335.901 299.59 335.186 299.594H334.383Z" fill="black"/>
<path id="Vector_82" d="M237.32 378.502H394.046C394.048 377.731 393.898 376.968 393.604 376.256C393.31 375.544 392.878 374.897 392.334 374.353C391.789 373.808 391.142 373.376 390.43 373.083C389.718 372.789 388.955 372.638 388.185 372.64H243.209C242.437 372.638 241.673 372.788 240.959 373.082C240.246 373.376 239.597 373.807 239.05 374.351C238.504 374.895 238.069 375.542 237.772 376.254C237.476 376.966 237.322 377.73 237.32 378.502Z" fill="#00A8E8"/>
<path id="Vector_83" opacity="0.2" d="M342.271 378.502H394.046C394.048 377.731 393.898 376.968 393.604 376.256C393.31 375.544 392.878 374.897 392.334 374.353C391.789 373.808 391.142 373.376 390.43 373.083C389.718 372.789 388.955 372.638 388.185 372.64H348.16C347.388 372.638 346.624 372.788 345.911 373.082C345.197 373.376 344.548 373.807 344.002 374.351C343.455 374.895 343.021 375.542 342.724 376.254C342.427 376.966 342.273 377.73 342.271 378.502Z" fill="black"/>
<path id="Vector_84" opacity="0.4" d="M274.353 338.395C275.454 346.025 280.731 351.587 286.144 350.812C291.557 350.037 295.052 343.21 293.964 335.58C292.876 327.95 287.586 322.388 282.173 323.163C276.76 323.938 273.251 330.752 274.353 338.395Z" fill="white"/>
<path id="Vector_85" opacity="0.2" d="M237.32 378.502H394.046C394.048 377.731 393.898 376.968 393.604 376.256C393.31 375.544 392.878 374.897 392.334 374.353C391.789 373.808 391.142 373.376 390.43 373.083C389.718 372.789 388.955 372.638 388.185 372.64H243.209C242.437 372.638 241.673 372.788 240.959 373.082C240.246 373.376 239.597 373.807 239.05 374.351C238.504 374.895 238.069 375.542 237.772 376.254C237.476 376.966 237.322 377.73 237.32 378.502Z" fill="black"/>
<path id="Vector_86" d="M173.128 386.09H443.768C443.768 383.522 442.748 381.059 440.932 379.243C439.116 377.427 436.653 376.407 434.085 376.407H182.825C180.255 376.407 177.791 377.427 175.973 379.243C174.155 381.058 173.132 383.521 173.128 386.09Z" fill="#263238"/>
</g>
</g>
</svg>
